<svg width="425" height="370" viewBox="0 0 425 370" fill="none" xmlns="http://www.w3.org/2000/svg">
<path d="M158.839 370C246.563 370 317.677 364.548 317.677 357.822C317.677 351.097 246.563 345.645 158.839 345.645C71.1144 345.645 0 351.097 0 357.822C0 364.548 71.1144 370 158.839 370Z" fill="#E6E7E8"/>
<path d="M310.899 243.5H423.843V329.916H310.899V243.5Z" fill="white"/>
<path d="M423.843 330.77H310.899C310.662 330.77 310.435 330.682 310.268 330.525C310.101 330.368 310.007 330.155 310.007 329.933V243.5C310.007 243.278 310.101 243.065 310.268 242.908C310.435 242.751 310.662 242.663 310.899 242.663H423.843C424.078 242.667 424.302 242.757 424.468 242.913C424.634 243.069 424.73 243.28 424.734 243.5V329.933C424.73 330.154 424.634 330.364 424.468 330.52C424.302 330.676 424.078 330.766 423.843 330.77ZM311.791 329.095H422.951V244.338H311.808L311.791 329.095Z" fill="#D1D3D4"/>
<path d="M423.843 255.443H310.899C310.662 255.443 310.435 255.355 310.268 255.198C310.101 255.041 310.007 254.828 310.007 254.606C310.007 254.384 310.101 254.171 310.268 254.014C310.435 253.857 310.662 253.768 310.899 253.768H423.843C424.079 253.768 424.306 253.857 424.473 254.014C424.64 254.171 424.734 254.384 424.734 254.606C424.73 254.827 424.634 255.037 424.468 255.193C424.302 255.35 424.078 255.439 423.843 255.443Z" fill="#D1D3D4"/>
<path d="M112.64 82.0424C110.204 82.1962 107.774 81.676 105.65 80.5461C103.525 79.4163 101.8 77.7264 100.688 75.6854C99.5756 73.6445 99.1249 71.3422 99.3915 69.0632C99.6581 66.7842 100.63 64.6286 102.188 62.8631C95.374 59.915 91.771 52.3438 92.2704 45.3254C92.7698 38.3069 96.7118 31.925 101.635 26.5313C105.684 22.1259 110.767 18.1561 116.85 17.0673C118.001 16.9596 119.124 16.6648 120.167 16.1963C120.989 15.6537 121.701 14.9788 122.272 14.203C126.714 8.8763 132.19 3.98516 139.039 1.8411C145.888 -0.302965 154.272 0.919817 158.856 6.16272C161.147 4.29461 163.989 3.1239 167.004 2.80552C170.02 2.48713 173.067 3.03608 175.743 4.37971C178.419 5.72335 180.597 7.79835 181.99 10.3301C183.383 12.8619 183.924 15.7311 183.542 18.5581C188.368 19.2271 192.893 21.1668 196.593 24.1521C200.293 27.1375 203.016 31.0464 204.447 35.4258C206.998 44.2366 202.664 54.5884 194.013 58.7592C193.014 59.245 191.819 59.8815 191.854 60.9201C191.953 61.5469 192.251 62.1309 192.711 62.5951C195.493 66.3305 194.102 71.7409 190.927 75.1245C187.752 78.5081 183.007 80.3004 178.441 82.0089C179.457 82.9654 180.134 84.1927 180.379 85.5237C180.625 86.8546 180.428 88.2243 179.814 89.4461C178.491 91.892 176.432 93.919 173.893 95.2753C163.975 101.289 151.703 99.4127 140.591 99.6304C130.335 99.8314 120.15 93.684 113.354 86.7158C112.034 85.3925 110.981 82.9804 112.64 82.0424Z" fill="white"/>
<path d="M152.881 100.585C151.097 100.585 149.313 100.585 147.672 100.585C145.353 100.585 142.928 100.485 140.645 100.585C131.334 100.736 121.024 95.8281 112.712 87.4026C112.127 86.8517 111.667 86.195 111.361 85.4723C111.054 84.7496 110.907 83.9759 110.928 83.1982C110.918 83.1371 110.918 83.075 110.928 83.0139C108.527 82.9056 106.201 82.1883 104.199 80.9382C102.197 79.6882 100.593 77.9521 99.5576 75.9145C98.5221 73.8768 98.0939 71.6138 98.3183 69.3659C98.5427 67.118 99.4115 64.9692 100.832 63.1479C94.6786 59.9653 90.8436 52.7793 91.3787 45.2751C91.8247 38.8597 95.0531 32.3772 100.957 25.9785C106.094 20.4174 111.231 17.2348 116.689 16.2465L117.296 16.146C118.154 16.1143 118.99 15.8797 119.726 15.4639C120.462 15.0481 121.074 14.4646 121.505 13.7674C127.106 7.06724 132.725 2.94662 138.754 1.05381C146.192 -1.2745 154.343 0.350291 158.963 4.99018C161.394 3.22739 164.318 2.16403 167.379 1.92874C170.44 1.69346 173.509 2.29633 176.213 3.66442C178.917 5.03251 181.141 7.10718 182.616 9.63744C184.091 12.1677 184.754 15.0451 184.524 17.9216C189.343 18.7394 193.831 20.7839 197.498 23.832C201.165 26.8802 203.872 30.8151 205.321 35.2081C208.033 44.5716 203.235 55.3086 194.423 59.513C193.531 59.9318 192.729 60.4008 192.746 60.9033C192.835 61.2509 193.012 61.5729 193.264 61.8413L193.424 62.0591C196.599 66.2802 194.798 72.1931 191.498 75.6102C188.234 78.6188 184.298 80.9075 179.975 82.3104C180.756 83.408 181.228 84.6736 181.346 85.9889C181.465 87.3042 181.226 88.6262 180.653 89.8314C179.288 92.4137 177.133 94.5544 174.463 95.9788C167.846 99.9989 160.354 100.585 152.881 100.585ZM142.624 98.7761H147.708C156.626 98.9436 165.813 99.1279 173.429 94.5048C175.829 93.2491 177.774 91.3472 179.012 89.0441C179.565 87.9771 179.751 86.7746 179.543 85.6039C179.336 84.4331 178.745 83.3522 177.853 82.5114C177.736 82.4183 177.647 82.2984 177.593 82.1635C177.54 82.0285 177.525 81.883 177.549 81.7409C177.574 81.5967 177.638 81.4609 177.735 81.3465C177.832 81.2322 177.958 81.143 178.102 81.0876C182.276 79.5131 187.021 77.7375 190.178 74.3874C193.014 71.4561 194.601 66.431 191.962 62.9134L191.801 62.7291C191.315 62.2026 191.016 61.5468 190.945 60.853C190.945 59.178 192.639 58.374 193.585 57.9217C201.683 54.0021 206.071 44.1863 203.573 35.5431C202.162 31.3424 199.52 27.5999 195.949 24.7441C192.378 21.8883 188.023 20.0347 183.382 19.3956C183.151 19.3624 182.944 19.2456 182.803 19.0702C182.663 18.8948 182.602 18.6749 182.633 18.4576C182.983 15.804 182.472 13.113 181.165 10.7372C179.858 8.36149 177.818 6.41198 175.311 5.1443C172.804 3.87661 169.947 3.34992 167.116 3.63329C164.285 3.91665 161.611 4.99684 159.445 6.73223C159.355 6.80626 159.25 6.86229 159.137 6.89686C159.023 6.93143 158.904 6.94381 158.785 6.93323C158.667 6.92497 158.552 6.89392 158.448 6.84203C158.344 6.79014 158.252 6.71854 158.178 6.63172C154.165 2.04209 146.406 0.36704 139.342 2.59486C133.652 4.37041 128.301 8.32353 122.986 14.672C122.356 15.5312 121.564 16.2749 120.649 16.8663C119.708 17.337 118.678 17.6328 117.617 17.7373L117.046 17.8378C111.998 18.7591 107.182 21.7574 102.313 27.0171C96.6763 33.131 93.6083 39.2952 93.1803 45.3253C92.663 52.5616 96.5158 59.4293 102.58 62.0758C102.704 62.1297 102.813 62.2088 102.899 62.3074C102.985 62.4059 103.047 62.5214 103.08 62.6453C103.108 62.7715 103.105 62.9021 103.071 63.027C103.037 63.152 102.973 63.2678 102.884 63.3656C101.413 64.9979 100.489 67.0024 100.228 69.1266C99.968 71.2509 100.382 73.4001 101.42 75.3036C102.457 77.2071 104.071 78.78 106.058 79.8241C108.045 80.8682 110.317 81.337 112.587 81.1714C112.79 81.1519 112.994 81.1999 113.164 81.307C113.333 81.4141 113.457 81.5736 113.514 81.7577C113.575 81.9374 113.569 82.1312 113.498 82.3075C113.427 82.4838 113.294 82.6324 113.122 82.7292C113.012 82.7865 112.918 82.8685 112.85 82.9678C112.782 83.0672 112.74 83.1808 112.73 83.2987C112.76 84.3678 113.234 85.3835 114.05 86.1295C121.934 94.2033 131.887 98.9269 140.609 98.7594L142.624 98.7761Z" fill="#231F20"/>
<path d="M240.033 327.353C244.118 327.353 274.565 330.452 288.817 337.102C303.069 343.752 306.155 344.271 303.265 353.25C300.375 362.228 275.279 364.439 256.175 361.055C243.871 358.68 232.003 354.628 220.947 349.028L240.033 327.353Z" fill="white"/>
<path d="M274.19 363.451C268.095 363.428 262.016 362.867 256.032 361.776C243.644 359.382 231.693 355.308 220.554 349.682C220.451 349.623 220.361 349.545 220.291 349.453C220.22 349.361 220.17 349.256 220.144 349.146C220.124 349.036 220.129 348.924 220.16 348.817C220.19 348.71 220.246 348.611 220.323 348.526L239.408 326.851C239.478 326.762 239.57 326.69 239.675 326.64C239.781 326.591 239.897 326.565 240.015 326.566H240.193C245.17 326.566 274.904 329.749 289.173 336.399L292.384 337.889C303.818 343.149 306.903 344.59 304.049 353.467C302.248 359.095 290.511 363.451 274.19 363.451ZM222.213 348.794C232.954 354.119 244.441 357.993 256.335 360.301C275.51 363.652 299.84 361.273 302.498 353.032C304.941 345.394 303.175 344.573 291.671 339.28L288.46 337.789C274.85 331.44 245.74 328.208 240.407 328.107L222.213 348.794Z" fill="#231F20"/>
<path d="M244.116 327.27C246.809 327.889 249.154 329.442 250.679 331.616C252.204 333.791 252.797 336.427 252.339 338.995C251.001 348.526 229.543 348.928 228.313 349.045C227.082 349.162 244.116 327.27 244.116 327.27Z" fill="white"/>
<path d="M228.313 349.581C228.153 349.577 227.998 349.534 227.861 349.458C227.724 349.382 227.609 349.275 227.528 349.146C227.26 348.643 226.832 347.873 243.456 326.75C243.552 326.627 243.685 326.534 243.837 326.483C243.99 326.432 244.156 326.426 244.313 326.466C244.402 326.466 254.569 328.861 253.231 338.961C251.875 348.66 232.326 349.514 228.42 349.581H228.313ZM244.366 328.09C239.14 334.791 231.363 344.841 229.419 348.023C234.306 347.806 250.377 346.516 251.465 338.76C251.884 336.491 251.4 334.156 250.104 332.201C248.807 330.246 246.791 328.806 244.437 328.157L244.366 328.09Z" fill="#231F20"/>
<path d="M85.0814 349.095C84.4571 349.397 78.6244 356.516 53.1888 359.363C27.7533 362.211 18.3175 367.353 12.6453 354.807C6.97316 342.261 10.8616 334.154 23.3475 330.569C35.8334 326.985 70.4194 324.02 77.1974 330.017C83.9755 336.013 85.0814 349.095 85.0814 349.095Z" fill="white"/>
<path d="M25.2018 363.618C18.9053 363.618 14.8563 361.642 11.8954 355.109C8.93442 348.576 8.4885 342.965 10.6468 338.626C12.6445 334.606 16.8541 331.641 23.1327 329.849C34.8694 326.499 70.5256 323.048 77.7674 329.464C84.706 335.595 85.8119 348.492 85.8654 349.028C85.8736 349.17 85.8416 349.312 85.7727 349.438C85.7038 349.565 85.6004 349.672 85.473 349.749L85.2233 349.95C77.8923 356.214 63.8189 358.945 53.2594 360.117C47.7834 360.737 43.0744 361.457 38.9898 362.094C34.4401 362.921 29.8315 363.43 25.2018 363.618ZM58.1289 327.337C45.9105 327.337 31.1058 329.162 23.6499 331.306C17.7994 332.981 13.9109 335.662 12.1272 339.28C10.1652 343.199 10.5933 348.325 13.3937 354.506C17.5854 363.802 23.7748 362.881 38.6865 360.586C42.8604 359.95 47.605 359.229 53.0988 358.61C63.4086 357.454 77.161 354.807 84.1709 348.811C83.9212 346.616 82.3872 335.779 76.6258 330.62C74.0573 328.241 66.7263 327.337 58.1289 327.337Z" fill="#231F20"/>
<path d="M93.198 343.97C93.198 343.97 81.6575 353.015 73.9698 351.943C66.282 350.871 55.6511 346.918 59.932 339.129C64.2129 331.34 91.7711 326.65 91.7711 326.65L93.198 343.97Z" fill="white"/>
<path d="M75.2899 352.797C74.8063 352.798 74.3233 352.764 73.8451 352.697C68.0837 351.893 61.1273 349.581 58.8977 345.477C58.3472 344.426 58.0866 343.261 58.1395 342.091C58.1925 340.92 58.5575 339.781 59.2009 338.777C63.6245 330.703 90.487 326.097 91.6286 325.896C91.7409 325.878 91.856 325.882 91.9666 325.908C92.0771 325.934 92.1807 325.981 92.2707 326.047C92.3611 326.114 92.4361 326.197 92.4913 326.292C92.5464 326.387 92.5806 326.492 92.5918 326.599L94.0187 343.903C94.0286 344.025 94.008 344.148 93.9584 344.261C93.9089 344.375 93.8318 344.475 93.7334 344.556C93.2696 344.908 83.1203 352.797 75.2899 352.797ZM91.04 327.571C86.3132 328.442 64.2845 332.847 60.7171 339.481C60.1908 340.268 59.8854 341.168 59.8293 342.097C59.7732 343.025 59.9681 343.952 60.396 344.791C62.3581 348.358 68.7794 350.435 74.1483 351.189C80.6945 352.11 90.5227 345.042 92.4134 343.635L91.04 327.571Z" fill="#231F20"/>
<path d="M231.827 267.99C231.827 267.99 219.662 312.546 175.266 321.055C130.87 329.564 107.895 327.32 92.1633 299.179C76.431 271.038 86.8122 253.819 86.8122 253.819L226.922 251.206L231.827 267.99Z" fill="#231F20"/>
<path d="M138.647 326.264C117.243 326.264 102.385 319.263 91.3613 299.564C75.5934 271.339 85.6356 254.12 86.0102 253.4C86.088 253.273 86.1998 253.168 86.3343 253.094C86.4689 253.021 86.6215 252.982 86.7772 252.981L226.887 250.368C227.089 250.358 227.288 250.415 227.451 250.528C227.614 250.641 227.729 250.803 227.779 250.988L232.63 267.738C232.666 267.881 232.666 268.03 232.63 268.174C232.505 268.626 219.823 313.4 175.374 321.859C161.336 324.589 149.189 326.264 138.647 326.264ZM87.4015 254.639C86.0102 257.403 78.9824 273.785 92.9488 298.794C108.913 327.269 132.19 328.475 174.999 320.234C216.791 312.227 229.83 271.272 230.811 267.989L226.191 252.06L87.4015 254.639Z" fill="#231F20"/>
<path d="M76.3592 268.392C76.3592 268.392 53.4029 198.71 56.4174 155.041C59.4319 111.373 76.7159 109.815 100.296 107.352C110.767 106.247 166.543 98.4915 187.43 121.574C208.317 144.656 245.079 252.763 245.079 252.763L76.3592 268.392Z" fill="#42A4CA"/>
<path d="M159.212 107.47L155.645 130.786C155.645 130.786 147.832 142.83 132.189 136.733C116.546 130.636 116.243 119.396 116.243 119.396L123.663 76.3137C123.663 76.3137 140.163 62.4108 147.101 35.8446C147.101 35.8446 160.925 58.4912 180.991 63.5834C180.991 63.5834 179.654 82.3941 176.068 94.0525C172.501 105.326 159.462 107.336 159.212 107.47Z" fill="white"/>
<path d="M140.573 139.279C137.54 139.244 134.544 138.641 131.762 137.503C115.709 131.272 115.281 119.898 115.263 119.413L122.736 76.1797C122.773 75.9881 122.873 75.8122 123.022 75.6772C123.182 75.5432 139.396 61.6403 146.21 35.6435C146.259 35.4839 146.355 35.3407 146.488 35.2309C146.621 35.1211 146.784 35.0492 146.959 35.0237C147.133 35.0006 147.311 35.0264 147.47 35.098C147.628 35.1695 147.761 35.2836 147.851 35.4257C147.994 35.6602 161.746 57.8379 181.17 62.7625C181.371 62.8127 181.547 62.9273 181.668 63.0863C181.788 63.2453 181.846 63.4389 181.83 63.6336C181.83 63.8178 180.439 82.6789 176.872 94.2869C173.929 103.851 164.386 107.135 160.034 108.14L156.466 130.904C156.45 131.014 156.413 131.122 156.359 131.222C154.601 133.648 152.252 135.645 149.506 137.047C146.76 138.448 143.698 139.213 140.573 139.279ZM124.52 76.7157L117.136 119.53C117.136 119.798 117.671 130.15 132.547 135.962C146.442 141.373 153.951 131.741 154.807 130.485L158.375 107.352C158.391 107.225 158.441 107.104 158.518 106.999C158.596 106.894 158.7 106.808 158.821 106.749C158.985 106.66 159.167 106.603 159.356 106.582C163.191 105.728 172.43 102.763 175.177 93.8179C178.316 83.6169 179.743 67.6704 180.011 64.2031C163.244 59.5799 151.079 43.3487 147.441 37.9718C140.663 61.5565 126.446 74.8731 124.52 76.7157Z" fill="#231F20"/>
<path d="M133.278 76.967C133.078 74.7878 132.126 72.7295 130.567 71.1044C129.051 69.6444 127.277 68.4428 125.323 67.5533C124.31 66.9648 123.171 66.5931 121.987 66.4645C121.15 66.4722 120.322 66.6255 119.544 66.9168C117.645 67.4856 116.025 68.674 114.977 70.2668C114.288 71.6182 113.963 73.1081 114.032 74.6052C113.962 76.2254 114.118 77.8472 114.496 79.4294C114.915 81.0091 115.665 82.4944 116.704 83.7981C117.742 85.1018 119.047 86.1977 120.542 87.0214C122.037 87.8452 123.693 88.3803 125.411 88.5953C127.13 88.8104 128.876 88.701 130.549 88.2736" fill="white"/>
<path d="M127.161 89.4627C124.057 89.4654 121.041 88.4945 118.592 86.7041C116.142 84.9137 114.4 82.4063 113.641 79.58C113.227 77.9347 113.059 76.2435 113.141 74.5548C113.078 72.9234 113.44 71.3021 114.194 69.8312C115.33 68.08 117.095 66.7673 119.17 66.1293C120.058 65.8054 121.001 65.6351 121.953 65.6268C123.274 65.7575 124.548 66.1638 125.681 66.8161C127.72 67.7509 129.573 69.0089 131.157 70.5347C132.849 72.2995 133.882 74.5341 134.1 76.8999C134.115 77.1212 134.038 77.3393 133.885 77.5081C133.731 77.6768 133.514 77.7831 133.279 77.8044C133.045 77.8143 132.815 77.7403 132.636 77.5973C132.457 77.4543 132.343 77.253 132.316 77.0339C132.141 75.0409 131.284 73.1546 129.873 71.657C128.423 70.2743 126.726 69.1405 124.86 68.3069C123.971 67.7713 122.965 67.4281 121.917 67.3019C121.195 67.3075 120.48 67.444 119.812 67.7039C118.128 68.1924 116.677 69.2171 115.71 70.6017C115.104 71.839 114.823 73.1945 114.889 74.5548C114.804 76.1024 114.954 77.6535 115.335 79.1612C115.728 80.6275 116.427 82.0059 117.391 83.2163C118.356 84.4267 119.568 85.4449 120.955 86.2118C122.343 86.9786 123.879 87.4788 125.474 87.6832C127.069 87.8876 128.692 87.7922 130.247 87.4024C130.474 87.3459 130.716 87.3758 130.919 87.4856C131.123 87.5953 131.273 87.7761 131.335 87.9887C131.365 88.0954 131.371 88.2065 131.355 88.3157C131.339 88.4248 131.3 88.5299 131.24 88.6248C131.18 88.7197 131.101 88.8026 131.007 88.8688C130.914 88.935 130.807 88.9832 130.693 89.0105C129.543 89.3089 128.355 89.461 127.161 89.4627Z" fill="#231F20"/>
<path d="M155.7 70.3171C155.7 70.3171 162.71 83.2988 160.409 85.1581C158.108 87.0174 152.578 84.9738 152.578 84.9738" fill="white"/>
<path d="M157.537 86.7829C155.705 86.7298 153.895 86.3843 152.186 85.7611C152.077 85.7205 151.978 85.6601 151.893 85.5834C151.809 85.5067 151.742 85.4151 151.696 85.314C151.649 85.2129 151.625 85.1041 151.623 84.994C151.622 84.8839 151.643 84.7746 151.687 84.6723C151.778 84.4685 151.949 84.3057 152.165 84.2182C152.382 84.1308 152.626 84.1254 152.846 84.2033C154.148 84.6723 158.197 85.7611 159.749 84.5216C160.694 83.7846 158.34 77.1849 154.844 70.6857C154.789 70.5882 154.756 70.4813 154.746 70.3715C154.736 70.2616 154.749 70.151 154.786 70.0463C154.823 69.9416 154.881 69.8448 154.959 69.7618C155.036 69.6789 155.13 69.6114 155.236 69.5634C155.447 69.4685 155.69 69.4538 155.912 69.5224C156.135 69.5911 156.321 69.7378 156.431 69.9319C158.625 74.019 163.477 83.7343 160.926 85.7946C159.949 86.4765 158.754 86.8251 157.537 86.7829Z" fill="#231F20"/>
<path d="M146.992 67.3828C147.126 65.8338 146.28 64.5049 145.102 64.4147C143.923 64.3245 142.859 65.5072 142.725 67.0562C142.59 68.6052 143.437 69.9341 144.615 70.0243C145.793 70.1145 146.857 68.9318 146.992 67.3828Z" fill="#231F20"/>
<path d="M169.09 70.2503C169.213 68.7004 168.357 67.3771 167.178 67.2947C165.999 67.2122 164.944 68.4018 164.821 69.9516C164.698 71.5015 165.554 72.8248 166.733 72.9073C167.912 72.9897 168.967 71.8002 169.09 70.2503Z" fill="#231F20"/>
<path d="M153.88 97.1681C151.153 97.2131 148.454 96.6384 146.014 95.493C141.751 93.3992 139.022 89.3959 137.898 83.6002C137.878 83.4913 137.881 83.3796 137.906 83.2716C137.932 83.1637 137.98 83.0616 138.048 82.9713C138.116 82.881 138.203 82.8042 138.302 82.7454C138.402 82.6866 138.513 82.6469 138.63 82.6287C138.861 82.5939 139.097 82.6442 139.29 82.7689C139.483 82.8937 139.617 83.0835 139.664 83.2987C140.663 88.5583 143.089 92.1597 146.799 94.0022C154.291 97.6874 164.832 93.2317 164.939 93.1815C165.155 93.0908 165.399 93.084 165.62 93.1625C165.841 93.241 166.019 93.3984 166.116 93.6002C166.167 93.7 166.195 93.8082 166.2 93.9185C166.204 94.0288 166.185 94.1388 166.144 94.242C166.102 94.3452 166.039 94.4395 165.957 94.5192C165.876 94.5989 165.779 94.6623 165.671 94.7058C161.945 96.2298 157.942 97.0658 153.88 97.1681Z" fill="#231F20"/>
<path d="M159.213 107.47C159.213 107.47 143.16 108.709 134.884 102.578C134.884 102.578 141.929 123.517 156.734 123.45L159.213 107.47Z" fill="#231F20"/>
<path d="M156.627 124.287C141.395 124.287 134.296 103.701 133.992 102.83C133.94 102.658 133.946 102.475 134.01 102.307C134.074 102.139 134.193 101.993 134.349 101.892C134.499 101.782 134.685 101.722 134.875 101.722C135.066 101.722 135.251 101.782 135.401 101.892C143.375 107.738 158.946 106.615 159.107 106.599C159.24 106.59 159.373 106.609 159.497 106.655C159.621 106.701 159.732 106.772 159.823 106.864C159.913 106.955 159.981 107.065 160.021 107.184C160.06 107.303 160.071 107.43 160.052 107.553L157.573 123.55C157.535 123.759 157.418 123.947 157.245 124.083C157.072 124.218 156.853 124.29 156.627 124.287ZM136.65 104.689C138.915 109.932 145.337 122.076 155.932 122.595L158.126 108.374C154.701 108.508 144.142 108.609 136.686 104.689H136.65Z" fill="#231F20"/>
<path d="M82.6208 111.238C49.6758 107.386 18.7465 238.726 36.7262 251.205C64.7659 270.686 150.348 244.087 150.348 244.087L141.786 209.43C141.786 209.43 80.0166 212.194 78.8928 200.284C77.7691 188.374 113.407 132.545 108.413 124.404C103.419 116.264 82.6208 111.238 82.6208 111.238Z" fill="#42A4CA"/>
<path d="M197.652 210.401C197.455 210.407 197.263 210.343 197.115 210.222C196.966 210.101 196.871 209.932 196.849 209.748C192.604 181.741 183.293 134.84 180.278 132.093C180.132 131.949 180.05 131.757 180.051 131.558C180.052 131.358 180.135 131.167 180.282 131.024C180.43 130.881 180.631 130.797 180.843 130.79C181.055 130.783 181.262 130.854 181.42 130.987C185.291 134.522 195.244 188.324 198.454 209.53C198.485 209.733 198.429 209.938 198.298 210.101C198.168 210.264 197.974 210.372 197.759 210.401H197.652Z" fill="#231F20"/>
<path d="M166.133 276.666L109.269 261.708L213.704 243.266L270.23 265.51L166.133 276.666Z" fill="white"/>
<path d="M166.134 277.554C166.057 277.57 165.978 277.57 165.902 277.554L109.037 262.479C108.801 262.479 108.574 262.39 108.407 262.233C108.239 262.076 108.146 261.863 108.146 261.641C108.146 261.419 108.239 261.206 108.407 261.049C108.574 260.892 108.801 260.804 109.037 260.804L213.473 242.378C213.635 242.328 213.81 242.328 213.972 242.378L270.498 264.623C270.679 264.695 270.829 264.821 270.926 264.981C271.023 265.142 271.06 265.328 271.033 265.51C271.006 265.695 270.915 265.867 270.772 265.997C270.63 266.128 270.446 266.21 270.248 266.231L166.241 277.554H166.134ZM113.193 261.926L166.205 275.879L266.734 265.108L213.598 244.204L113.193 261.926Z" fill="#231F20"/>
<path d="M132.582 221.406C145.068 222.696 156.644 223.534 168.256 228.107C174.892 230.724 181.158 234.099 186.914 238.157C189.846 240.111 192.586 242.309 195.101 244.723C197.099 246.767 196.456 248.76 193.103 247.772C189.204 246.625 185.511 244.93 182.151 242.747C190.185 248.902 197.306 256.04 203.324 263.969C204.001 264.874 204.661 266.164 203.859 266.968C203.056 267.772 201.272 266.968 200.291 266.13L182.651 250.418C187.321 254.202 191.292 258.684 194.405 263.685C194.851 264.405 195.279 265.36 194.815 266.013C194.031 267.236 192.033 266.315 190.963 265.293C185.679 260.282 180.874 254.845 176.604 249.045L186.129 262.445C186.039 262.692 185.897 262.92 185.713 263.116C185.528 263.311 185.304 263.47 185.054 263.584C184.803 263.698 184.531 263.764 184.253 263.778C183.976 263.793 183.698 263.755 183.435 263.668C182.386 263.261 181.479 262.588 180.813 261.725L169.273 249.279L176.087 258.09C177.157 259.464 178.227 261.44 176.996 262.73C175.765 264.02 172.983 262.73 171.413 261.423C165.1 256.013 158.166 251.277 150.74 247.303C148.047 245.812 145.746 243.785 142.767 242.931C138.486 241.691 133.135 241.859 128.676 241.39" fill="white"/>
<path d="M203.003 268.107C201.812 267.981 200.703 267.472 199.864 266.666L194.156 261.641C194.531 262.194 194.905 262.764 195.244 263.316C195.605 263.753 195.834 264.273 195.906 264.821C195.979 265.369 195.892 265.926 195.655 266.432C195.495 266.69 195.273 266.909 195.006 267.072C194.74 267.235 194.437 267.337 194.121 267.37C193.446 267.362 192.78 267.222 192.166 266.96C191.552 266.697 191.003 266.318 190.553 265.846C189.376 264.74 188.234 263.618 187.111 262.495C187.119 262.557 187.119 262.619 187.111 262.68C187.043 262.99 186.906 263.283 186.71 263.54C186.513 263.797 186.26 264.012 185.969 264.171C185.584 264.387 185.156 264.527 184.711 264.581C184.266 264.636 183.814 264.605 183.383 264.489C182.183 264.047 181.143 263.291 180.386 262.311L178.281 260.05C178.544 260.596 178.636 261.2 178.548 261.793C178.46 262.386 178.194 262.943 177.782 263.4C177.525 263.67 177.212 263.888 176.863 264.041C176.513 264.193 176.134 264.277 175.748 264.288C173.886 264.097 172.161 263.275 170.897 261.976C164.645 256.595 157.764 251.897 150.384 247.973C149.475 247.47 148.601 246.901 147.744 246.298C146.186 245.156 144.447 244.252 142.589 243.618C139.479 242.879 136.29 242.474 133.082 242.412C131.548 242.328 130.05 242.244 128.641 242.11C128.426 242.085 128.23 241.981 128.097 241.821C127.963 241.661 127.902 241.458 127.927 241.256C127.939 241.157 127.97 241.06 128.021 240.973C128.072 240.885 128.141 240.808 128.224 240.746C128.307 240.684 128.403 240.637 128.505 240.61C128.607 240.582 128.714 240.574 128.819 240.586C130.211 240.72 131.673 240.804 133.172 240.887C136.512 240.947 139.834 241.369 143.071 242.144C145.082 242.834 146.97 243.805 148.672 245.025C149.492 245.578 150.331 246.114 151.205 246.599C158.685 250.591 165.667 255.355 172.021 260.804C172.985 261.725 174.233 262.34 175.588 262.563C175.754 262.557 175.917 262.52 176.067 262.454C176.217 262.388 176.351 262.293 176.462 262.177C177.425 261.189 176.105 259.263 175.499 258.475L168.685 249.681C168.621 249.605 168.574 249.517 168.547 249.423C168.52 249.329 168.513 249.231 168.526 249.134C168.539 249.038 168.573 248.944 168.624 248.86C168.676 248.776 168.745 248.702 168.828 248.643C168.978 248.505 169.179 248.427 169.39 248.427C169.6 248.427 169.801 248.505 169.951 248.643L181.51 261.088C182.074 261.83 182.846 262.41 183.739 262.764C183.951 262.819 184.171 262.834 184.389 262.809C184.606 262.783 184.816 262.716 185.006 262.613C185.12 262.557 185.217 262.477 185.291 262.378L175.998 249.263C175.878 249.096 175.832 248.891 175.872 248.693C175.913 248.495 176.035 248.321 176.212 248.207C176.39 248.094 176.608 248.052 176.818 248.089C177.029 248.127 177.215 248.242 177.336 248.408C181.587 254.168 186.361 259.571 191.606 264.556C192.186 265.155 192.978 265.535 193.835 265.628C193.906 265.626 193.974 265.606 194.034 265.571C194.094 265.536 194.142 265.486 194.174 265.427C194.37 265.142 194.174 264.606 193.764 263.869C191.617 260.418 189.049 257.214 186.112 254.321L182.134 250.77C182.005 250.626 181.937 250.444 181.942 250.256C181.946 250.068 182.024 249.889 182.16 249.751C182.296 249.613 182.48 249.526 182.679 249.508C182.878 249.489 183.077 249.538 183.24 249.648C184.649 250.787 185.987 251.976 187.271 253.232L200.899 265.377C201.428 265.942 202.156 266.31 202.95 266.415C203.022 266.418 203.094 266.404 203.159 266.375C203.224 266.346 203.281 266.302 203.324 266.248C203.735 265.846 203.324 264.941 202.736 264.204C196.763 256.333 189.696 249.246 181.724 243.132C181.578 243.002 181.488 242.825 181.471 242.637C181.455 242.448 181.513 242.261 181.634 242.11C181.755 241.959 181.931 241.855 182.129 241.818C182.326 241.781 182.531 241.813 182.705 241.909C185.984 244.053 189.593 245.714 193.407 246.834C194.656 247.202 195.316 247.052 195.44 246.834C195.565 246.616 195.441 245.879 194.566 245.008C192.091 242.623 189.386 240.459 186.486 238.542C180.787 234.527 174.58 231.191 168.007 228.609C157.537 224.505 147.067 223.45 135.901 222.328L132.422 221.959C132.317 221.949 132.214 221.919 132.121 221.871C132.028 221.823 131.946 221.758 131.879 221.681C131.813 221.603 131.764 221.513 131.734 221.417C131.705 221.321 131.697 221.221 131.709 221.122C131.72 221.023 131.752 220.926 131.803 220.839C131.854 220.751 131.923 220.674 132.006 220.612C132.089 220.549 132.184 220.503 132.286 220.476C132.388 220.448 132.495 220.44 132.601 220.452L136.168 220.804C147.388 221.943 157.965 223.015 168.649 227.202C175.347 229.808 181.674 233.183 187.485 237.253C190.467 239.244 193.249 241.487 195.797 243.953C197.082 245.259 197.474 246.683 196.832 247.638C196.457 248.174 195.458 248.978 192.943 248.241C191.492 247.824 190.068 247.326 188.68 246.75C194.383 251.761 199.54 257.294 204.074 263.266C205.304 264.941 205.465 266.298 204.555 267.236C204.361 267.437 204.124 267.599 203.86 267.712C203.596 267.824 203.311 267.884 203.021 267.889L203.003 268.107Z" fill="#231F20"/>
<path d="M270.231 265.51L296.255 200.1L189.964 202.076L166.134 276.666L270.231 265.51Z" fill="white"/>
<path d="M166.134 277.554C166.004 277.555 165.876 277.529 165.758 277.477C165.641 277.424 165.538 277.348 165.456 277.253C165.363 277.147 165.298 277.022 165.267 276.888C165.236 276.754 165.24 276.614 165.278 276.482L189.108 201.892C189.166 201.723 189.277 201.575 189.427 201.468C189.577 201.36 189.758 201.298 189.947 201.289L296.237 199.313C296.383 199.31 296.527 199.341 296.658 199.403C296.788 199.464 296.901 199.554 296.986 199.664C297.064 199.777 297.114 199.905 297.133 200.038C297.151 200.171 297.138 200.307 297.093 200.435L271.069 265.762C271.011 265.91 270.91 266.04 270.778 266.138C270.646 266.235 270.487 266.296 270.32 266.314L166.241 277.554H166.134ZM190.642 202.947L167.454 275.745L269.66 264.79L295.024 201.004L190.642 202.947Z" fill="#231F20"/>
<path d="M264.558 266.114C264.558 266.114 293.401 288.107 283.269 308.274C273.138 328.442 88.846 351.491 88.846 351.491L80.5518 325.125C80.5518 325.125 225.121 255.778 264.558 266.114Z" fill="#231F20"/>
<path d="M88.8458 352.328C88.6535 352.326 88.4671 352.266 88.3133 352.158C88.1594 352.049 88.0461 351.898 87.9896 351.725L79.6954 325.36C79.632 325.175 79.6422 324.974 79.7242 324.796C79.8062 324.617 79.9544 324.472 80.1413 324.388C80.4981 324.204 116.761 306.867 157.393 290.988C212.064 269.631 248.184 260.988 264.736 265.31C264.861 265.342 264.977 265.399 265.075 265.477C270.108 269.493 274.579 274.091 278.382 279.162C286.337 289.916 288.263 300.1 283.947 308.643C273.637 328.978 96.4978 351.373 88.9706 352.312L88.8458 352.328ZM81.6039 325.527L89.4879 350.519C102.366 348.844 272.763 326.767 282.342 307.889C291.759 289.263 266.288 268.542 264.076 266.851C226.583 257.454 92.4132 320.502 81.711 325.561L81.6039 325.527Z" fill="#231F20"/>
<path d="M71.0084 256.013C71.0084 256.013 214.115 310.351 249.592 324.69L228.973 354.606C228.973 354.606 96.8364 352.177 58.9506 321.005C21.0648 289.832 23.5799 237.939 71.0084 256.013Z" fill="#231F20"/>
<path d="M228.974 355.477C228.652 355.477 195.458 354.824 158.071 350.368C107.771 344.355 74.2375 334.707 58.3804 321.658C38.5457 305.343 24.6507 276.7 35.5669 260.067C39.1343 254.539 48.6593 246.582 71.3836 255.226C72.8106 255.778 214.9 309.749 249.986 323.903C250.105 323.948 250.212 324.019 250.299 324.109C250.385 324.199 250.449 324.306 250.485 324.422C250.521 324.54 250.53 324.663 250.511 324.784C250.493 324.906 250.447 325.022 250.378 325.125L229.758 355.092C229.675 355.215 229.558 355.315 229.42 355.383C229.283 355.45 229.129 355.483 228.974 355.477ZM53.4396 253.098C46.1086 253.098 40.4899 255.745 37.0652 260.938C28.6462 273.785 35.6561 300.754 59.5399 320.402C95.5884 350.067 219.591 353.585 228.492 353.786L248.291 325.058C211.654 310.318 72.1149 257.32 70.688 256.783C65.2402 254.537 59.3862 253.286 53.4396 253.098Z" fill="#231F20"/>
<path d="M270.783 239.397C270.937 240.17 271.293 240.895 271.818 241.507L274.601 245.41C274.499 245.007 274.304 244.629 274.03 244.305C273.756 243.98 273.41 243.715 273.015 243.53C272.621 243.345 272.187 243.243 271.746 243.232C271.305 243.221 270.867 243.301 270.462 243.467C269.672 243.868 269.016 244.467 268.565 245.198C268.115 245.928 267.889 246.761 267.912 247.604C267.992 249.289 268.415 250.944 269.16 252.479C271.14 257.303 275.617 264.355 282.092 260.703C286.48 258.224 287.693 249.48 288.317 245.125C289.548 236.549 286.748 225.527 275.011 227.202C275.349 231.425 277.027 235.457 279.827 238.777C277.918 237.035 270.195 234.338 270.783 239.397Z" fill="white"/>
<path d="M278.508 262.479C277.791 262.483 277.079 262.37 276.404 262.144C272.176 260.787 269.536 255.678 268.341 252.747C267.563 251.12 267.121 249.369 267.039 247.588C267.01 246.597 267.281 245.619 267.821 244.768C268.361 243.917 269.148 243.228 270.089 242.78C270.526 242.593 271.001 242.496 271.481 242.495L271.088 241.943C270.479 241.223 270.074 240.37 269.911 239.464C269.769 238.798 269.867 238.108 270.19 237.501C270.513 236.894 271.043 236.406 271.695 236.113C273.524 235.583 275.498 235.721 277.224 236.499C275.511 233.686 274.487 230.55 274.228 227.319C274.216 227.126 274.28 226.936 274.409 226.784C274.537 226.633 274.72 226.531 274.923 226.499C276.708 226.132 278.562 226.178 280.323 226.633C282.085 227.089 283.703 227.939 285.037 229.112C289.228 232.998 289.924 240 289.157 245.276C288.461 250.1 287.213 258.76 282.54 261.407C281.331 262.114 279.933 262.486 278.508 262.479ZM271.588 244.053C271.3 244.05 271.015 244.101 270.749 244.204C270.1 244.545 269.564 245.048 269.199 245.656C268.834 246.265 268.654 246.956 268.68 247.655C268.751 249.242 269.15 250.801 269.857 252.244C270.749 254.388 273.211 259.531 276.992 260.737C277.773 260.971 278.6 261.034 279.41 260.921C280.22 260.807 280.992 260.521 281.666 260.083C285.679 257.822 286.892 249.313 287.48 245.226C288.212 240.201 287.623 233.668 283.913 230.15C282.86 229.22 281.594 228.529 280.211 228.131C278.829 227.733 277.367 227.639 275.94 227.855C276.399 231.668 277.987 235.283 280.524 238.291C280.654 238.442 280.718 238.634 280.701 238.827C280.685 239.021 280.589 239.201 280.435 239.33C280.283 239.464 280.082 239.539 279.873 239.539C279.664 239.539 279.463 239.464 279.311 239.33C278.116 238.224 274.174 236.649 272.408 237.454C272.016 237.621 271.516 238.006 271.641 239.313C271.797 239.959 272.101 240.565 272.533 241.088L274.031 243.165C274.424 243.405 274.756 243.722 275.002 244.096C275.249 244.469 275.405 244.89 275.458 245.326C275.477 245.497 275.435 245.669 275.338 245.815C275.241 245.96 275.095 246.071 274.923 246.13C274.753 246.188 274.566 246.189 274.395 246.134C274.223 246.08 274.076 245.972 273.978 245.829L272.872 244.288C272.473 244.106 272.03 244.025 271.588 244.053Z" fill="#231F20"/>
<path d="M230.596 318.492C230.483 318.508 230.369 318.508 230.257 318.492C227.135 317.353 153.362 290.536 136.738 280.971C136.531 280.85 136.383 280.657 136.326 280.435C136.27 280.212 136.308 279.978 136.434 279.782C136.496 279.684 136.579 279.599 136.677 279.531C136.774 279.464 136.886 279.415 137.004 279.389C137.122 279.362 137.244 279.358 137.364 279.377C137.484 279.395 137.598 279.436 137.701 279.497C154.182 288.978 230.15 316.599 230.917 316.867C231.146 316.95 231.331 317.114 231.431 317.325C231.532 317.535 231.539 317.774 231.452 317.99C231.378 318.144 231.257 318.273 231.105 318.363C230.953 318.452 230.775 318.497 230.596 318.492Z" fill="white"/>
<path d="M144.552 209.112C160.817 209.112 174.001 197.39 174.001 182.931C174.001 168.471 160.817 156.75 144.552 156.75C128.288 156.75 115.104 168.471 115.104 182.931C115.104 197.39 128.288 209.112 144.552 209.112Z" fill="#231F20"/>
<path d="M144.551 209.932C127.82 209.932 114.229 197.822 114.229 182.931C114.229 168.039 127.838 155.912 144.551 155.912C161.265 155.912 174.874 168.039 174.874 182.931C174.874 197.822 161.283 209.932 144.551 209.932ZM144.551 157.587C128.801 157.587 116.012 168.961 116.012 182.931C116.012 196.9 128.819 208.257 144.551 208.257C160.284 208.257 173.091 196.9 173.091 182.931C173.091 168.961 160.301 157.587 144.551 157.587Z" fill="#231F20"/>
<path d="M129.015 191.44L121.88 187.52V182.344L129.015 178.425C131.393 177.14 133.771 175.834 136.149 174.505V180.77C134.883 181.507 133.617 182.227 132.35 182.914C131.084 183.601 129.835 184.304 128.551 185.058L132.35 187.034L136.149 189.028V195.359L129.015 191.44Z" fill="white"/>
<path d="M138.165 197.018L146.566 167.001L150.954 168.86L142.517 198.827L138.165 197.018Z" fill="white"/>
<path d="M160.193 178.425L167.328 182.344V187.52L160.193 191.44L153.059 195.359V189.028L156.858 187.034L160.657 185.058C159.391 184.304 158.124 183.584 156.858 182.914C155.591 182.244 154.343 181.507 153.059 180.77V174.505L160.193 178.425Z" fill="white"/>
<path d="M83.4941 255.778C83.2576 255.792 83.0251 255.716 82.8478 255.569C82.6705 255.421 82.563 255.213 82.5488 254.991C82.5346 254.769 82.6149 254.551 82.7722 254.384C82.9294 254.218 83.1506 254.117 83.3871 254.103L126.196 249.229L132.992 217.051L78.143 212.696C78.012 212.688 77.8846 212.652 77.7703 212.591C77.656 212.53 77.5579 212.446 77.4831 212.344C77.403 212.245 77.3485 212.13 77.3237 212.008C77.299 211.886 77.3047 211.76 77.3404 211.641L99.8864 132.813C99.9479 132.591 100.101 132.401 100.312 132.285C100.522 132.168 100.774 132.136 101.01 132.193C101.247 132.251 101.449 132.395 101.573 132.593C101.697 132.791 101.732 133.026 101.67 133.249L79.3916 211.122L134.098 215.376C134.223 215.389 134.345 215.425 134.455 215.483C134.565 215.54 134.662 215.618 134.74 215.711C134.815 215.806 134.867 215.915 134.895 216.03C134.923 216.146 134.924 216.265 134.9 216.381L127.766 250.066C127.727 250.239 127.632 250.396 127.495 250.516C127.358 250.636 127.184 250.713 126.999 250.737L83.4941 255.678V255.778Z" fill="#231F20"/>
<path d="M230.294 28.3068H319.229V36.95H230.294V28.3068Z" fill="#E6E7E8"/>
<path d="M329.573 28.3068H418.509V36.95H329.573V28.3068Z" fill="#E6E7E8"/>
<path d="M267.021 43.1143H319.229V51.7576H267.021V43.1143Z" fill="#42A4CA"/>
<path d="M329.573 43.1143H408.573V51.7576H329.573V43.1143Z" fill="#E6E7E8"/>
<path d="M253.428 57.9385H319.228V66.5817H253.428V57.9385Z" fill="#E6E7E8"/>
<path d="M329.573 57.9385H366.674V66.5817H329.573V57.9385Z" fill="#E6E7E8"/>
<path d="M280.861 72.7459H319.247V81.3891H280.861V72.7459Z" fill="#E6E7E8"/>
<path d="M329.573 72.7459H402.241V81.3891H329.573V72.7459Z" fill="#42A4CA"/>
<path d="M307.011 87.5701H319.229V96.2133H307.011V87.5701Z" fill="#42A4CA"/>
<path d="M329.573 87.5701H378.393V96.2133H329.573V87.5701Z" fill="#E6E7E8"/>
<path d="M235.966 148.475H317.695V158.374H235.966V148.475Z" fill="#42A4CA"/>
<path d="M330.822 148.475H381.016V158.374H330.822V148.475Z" fill="#E6E7E8"/>
<path d="M251.325 165.426H317.679V175.326H251.325V165.426Z" fill="#E6E7E8"/>
<path d="M330.822 165.426H403.9V175.326H330.822V165.426Z" fill="#E6E7E8"/>
<path d="M284.5 182.394H317.677V192.294H284.5V182.394Z" fill="#E6E7E8"/>
<path d="M330.822 182.394H417.724V192.294H330.822V182.394Z" fill="#E6E7E8"/>
<path d="M305.244 199.363H317.677V209.262H305.244V199.363Z" fill="#E6E7E8"/>
<path d="M330.822 199.363H423.182V209.262H330.822V199.363Z" fill="#42A4CA"/>
<path d="M330.822 216.314H392.859V226.214H330.822V216.314Z" fill="#E6E7E8"/>
<path d="M362.269 127.001L355.562 124.488V121.138L362.269 118.625L368.976 116.113V120.1C367.763 120.585 366.568 121.038 365.409 121.473C364.249 121.909 363.018 122.361 361.841 122.847L365.409 124.12L368.976 125.393V129.446L362.269 127.001Z" fill="#E6E7E8"/>
<path d="M370.956 130.568L378.911 111.356L383.085 112.528L375.076 131.825L370.956 130.568Z" fill="#E6E7E8"/>
<path d="M391.754 118.676C393.983 119.513 396.231 120.351 398.46 121.188V124.538L391.754 127.051L385.047 129.564V125.46L388.614 124.187L392.182 122.914C390.969 122.428 389.774 121.976 388.614 121.54C387.455 121.105 386.224 120.652 385.047 120.167V116.163L391.754 118.676Z" fill="#E6E7E8"/>
<path d="M232.63 7.70385C232.628 7.31556 232.719 6.9318 232.898 6.58157C233.053 6.22478 233.291 5.90454 233.593 5.64354C233.89 5.38575 234.235 5.18136 234.61 5.04053C235.012 4.88567 235.442 4.806 235.876 4.80602C236.287 4.80955 236.693 4.88925 237.071 5.04053C237.439 5.18538 237.777 5.38945 238.07 5.64354C238.356 5.91442 238.586 6.23241 238.748 6.58157C238.913 6.93546 238.998 7.31758 238.998 7.70385C238.998 8.09553 238.913 8.4831 238.748 8.84289C238.581 9.17454 238.351 9.47523 238.07 9.73066C237.474 10.2538 236.693 10.552 235.876 10.5682C235.442 10.5682 235.012 10.4885 234.61 10.3337C234.231 10.1993 233.885 9.99412 233.593 9.73066C233.296 9.4849 233.059 9.18216 232.898 8.84289C232.719 8.4868 232.627 8.09755 232.63 7.70385ZM232.63 17.5196C232.639 17.1361 232.728 16.758 232.893 16.4072C233.059 16.0564 233.297 15.7399 233.593 15.4761C233.884 15.2073 234.23 14.9965 234.61 14.8563C235.013 14.7072 235.443 14.6332 235.876 14.6386C236.286 14.6363 236.692 14.7103 237.071 14.8563C237.444 15.0008 237.783 15.2112 238.07 15.4761C238.356 15.7407 238.585 16.0532 238.748 16.3974C238.913 16.7543 238.997 17.1391 238.997 17.528C238.997 17.9169 238.913 18.3017 238.748 18.6587C238.585 18.9978 238.355 19.3048 238.07 19.5632C237.777 19.8173 237.439 20.0214 237.071 20.1662C236.692 20.3122 236.286 20.3862 235.876 20.384C235.443 20.3893 235.013 20.3153 234.61 20.1662C234.235 20.0254 233.89 19.821 233.593 19.5632C233.292 19.3145 233.054 19.0053 232.898 18.6587C232.717 18.3032 232.625 17.9135 232.63 17.5196Z" fill="#E6E7E8"/>
<path d="M336.78 289.547C337.486 289.582 338.183 289.393 338.76 289.011C339.26 288.66 339.491 287.923 339.491 286.784V281.591C339.49 280.731 339.61 279.875 339.848 279.045C340.07 278.271 340.445 277.544 340.954 276.901C341.473 276.282 342.131 275.779 342.881 275.427C343.773 275.036 344.75 274.847 345.734 274.874H349.748V280.268H348.339C348.017 280.238 347.693 280.291 347.401 280.42C347.108 280.55 346.859 280.752 346.68 281.005C346.371 281.514 346.217 282.094 346.234 282.68V287.973C346.254 288.643 346.126 289.31 345.859 289.933C345.645 290.413 345.343 290.855 344.967 291.239C344.639 291.57 344.245 291.837 343.808 292.026C343.459 292.199 343.077 292.307 342.684 292.345C343.072 292.412 343.45 292.525 343.808 292.68C344.244 292.856 344.638 293.112 344.967 293.433C345.826 294.326 346.28 295.498 346.234 296.7V302.01C346.211 302.596 346.366 303.177 346.68 303.685C346.857 303.94 347.105 304.146 347.398 304.278C347.69 304.411 348.015 304.467 348.339 304.439H349.748V309.832H345.734C344.75 309.859 343.773 309.67 342.881 309.279C342.131 308.927 341.473 308.424 340.954 307.805C340.449 307.16 340.074 306.433 339.848 305.661C339.611 304.825 339.491 303.964 339.491 303.098V297.906C339.553 297.509 339.52 297.105 339.393 296.722C339.267 296.34 339.05 295.989 338.76 295.695C338.183 295.313 337.486 295.124 336.78 295.159V289.547Z" fill="#E6E7E8"/>
<path d="M398.39 295.125C397.679 295.091 396.976 295.28 396.392 295.661C396.105 295.957 395.891 296.308 395.764 296.69C395.638 297.072 395.603 297.476 395.661 297.872V303.065C395.661 303.93 395.541 304.792 395.304 305.628C395.085 306.403 394.71 307.131 394.198 307.772C393.688 308.398 393.028 308.903 392.271 309.246C391.379 309.637 390.402 309.826 389.418 309.799H385.404V304.355H386.831C387.152 304.38 387.473 304.323 387.762 304.19C388.051 304.057 388.296 303.854 388.472 303.601C388.786 303.093 388.941 302.513 388.918 301.926V296.616C388.9 295.951 389.028 295.29 389.293 294.673C389.511 294.185 389.819 293.737 390.202 293.35C390.526 293.03 390.914 292.774 391.344 292.596C391.709 292.443 392.092 292.33 392.486 292.261C392.087 292.222 391.7 292.114 391.344 291.943C390.911 291.755 390.523 291.487 390.202 291.155C389.815 290.777 389.506 290.334 389.293 289.849C389.026 289.227 388.898 288.56 388.918 287.889V282.579C388.935 281.993 388.781 281.414 388.472 280.904C388.294 280.654 388.048 280.454 387.759 280.324C387.471 280.195 387.15 280.14 386.831 280.167H385.404V274.874H389.418C390.402 274.847 391.379 275.036 392.271 275.427C393.028 275.769 393.688 276.274 394.198 276.901C394.714 277.54 395.089 278.269 395.304 279.045C395.542 279.875 395.662 280.731 395.661 281.591V286.784C395.601 287.182 395.636 287.589 395.762 287.974C395.888 288.359 396.103 288.713 396.392 289.011C396.976 289.393 397.679 289.582 398.39 289.547V295.125Z" fill="#E6E7E8"/>
</svg>
