<svg width="60" height="60" viewBox="0 0 60 60" fill="none" xmlns="http://www.w3.org/2000/svg">
<path fill-rule="evenodd" clip-rule="evenodd" d="M40.9021 46.9401C40.9813 46.7878 41.0573 46.6532 41.1219 46.514C41.1627 46.425 41.2255 46.4072 41.3141 46.4095C41.8452 46.4245 42.3763 46.4409 42.9079 46.4461C43.3593 46.4507 43.8116 46.4423 44.2635 46.4372C44.7726 46.4311 45.2816 46.4043 45.7902 46.4189C46.4676 46.4386 47.1276 46.5712 47.7402 46.8726C48.4719 47.2331 49.0255 47.782 49.4029 48.5053C49.6402 48.9638 49.7883 49.4633 49.8393 49.9771C49.9199 50.7309 49.8669 51.4673 49.6279 52.1882C49.3316 53.0817 48.7691 53.7656 47.9877 54.2779C47.3863 54.6722 46.7268 54.9051 46.0199 55.0382C45.2718 55.1793 44.5213 55.1339 43.7708 55.1362C42.9477 55.1395 42.1251 55.1217 41.3019 55.1123C41.158 55.1109 41.1374 55.0837 41.1754 54.9464L41.2105 54.8198C41.2907 54.5676 41.3338 54.5564 41.5898 54.5142C41.7713 54.486 41.9449 54.4201 42.0993 54.3206C42.1855 54.2634 42.2212 54.1143 42.2549 53.9995C42.284 53.8992 42.2854 53.789 42.2863 53.6831C42.298 52.0776 42.3102 50.4726 42.3168 48.8681C42.3186 48.4623 42.3084 48.0565 42.2863 47.6512C42.2704 47.3676 42.119 47.1736 41.7815 47.1065C41.519 47.0545 41.2546 47.0142 40.9907 46.9678L40.9021 46.9401ZM48.4377 50.8275C48.4021 50.5078 48.3848 50.1853 48.3276 49.8703C48.1907 49.1142 47.8598 48.4556 47.2785 47.9395C46.3387 47.1056 45.2071 46.9772 44.0212 47.0765C43.7512 47.099 43.693 47.1914 43.6888 47.4689C43.6823 47.8626 43.6757 48.2564 43.6752 48.6501C43.6733 49.8989 43.6733 51.1476 43.6752 52.3964C43.6752 52.752 43.6801 53.107 43.6898 53.4614C43.701 53.8242 43.8327 54.1312 44.188 54.2718C44.7482 54.4936 45.3374 54.5198 45.9252 54.4293C46.8641 54.2854 47.5208 53.7384 47.9615 52.9186C48.3102 52.2679 48.4087 51.5578 48.4377 50.8275ZM50.7201 55.0795C50.7088 54.885 50.7885 54.7242 50.8869 54.5765C50.9137 54.5367 51.0055 54.5386 51.0688 54.5259L51.606 54.4195C51.7958 54.3792 51.8957 54.2517 51.9224 54.0656C51.9402 53.9428 51.9571 53.8186 51.9585 53.6943C51.9712 52.7114 51.9805 51.7284 51.9862 50.7454C51.9908 49.7611 51.9871 48.7767 51.9871 47.7923L51.9829 47.6043C51.9637 47.2879 51.8108 47.1239 51.4968 47.0775L50.8157 46.9739C50.7318 46.9626 50.7013 46.9223 50.7318 46.8478C50.7843 46.7207 50.8344 46.589 50.9085 46.4747C50.9362 46.4325 51.0294 46.4161 51.0923 46.4175C51.4176 46.4222 51.7429 46.4465 52.0682 46.4461L54.8999 46.4292C55.4455 46.4287 55.9724 46.5239 56.4618 46.785C57.0004 47.0718 57.3018 47.5157 57.388 48.1204C57.478 48.7556 57.2854 49.2909 56.8213 49.7161C56.6305 49.8914 56.3835 50.0057 56.1623 50.1482L56.0901 50.1932C56.2954 50.2687 56.4908 50.3339 56.6812 50.4117C57.238 50.64 57.681 50.9967 57.9154 51.5662C58.1005 52.0157 58.1005 52.4845 57.9908 52.9504C57.8202 53.6798 57.3398 54.165 56.7149 54.532C56.1285 54.8765 55.4938 55.0772 54.8179 55.1109C54.1944 55.1423 53.5682 55.1306 52.9433 55.1376L52.5815 55.1395C51.9793 55.1257 51.3771 55.1107 50.7749 55.0945L50.7201 55.0795ZM53.3155 52.2253H53.3216C53.3216 52.5337 53.3174 52.8422 53.323 53.1506C53.3268 53.3503 53.3198 53.5556 53.3629 53.7478C53.4276 54.0351 53.5588 54.2943 53.8813 54.3768C54.3125 54.4897 54.7628 54.5095 55.2023 54.435C55.754 54.3389 56.1941 54.0623 56.4355 53.5368C56.6146 53.1464 56.6413 52.7325 56.5799 52.3097C56.4983 51.7528 56.2026 51.3487 55.7108 51.0839C55.3883 50.91 55.0443 50.8036 54.6777 50.7895C54.2671 50.774 53.856 50.7731 53.4454 50.7604C53.3301 50.7572 53.3141 50.8157 53.3146 50.9104C53.3169 51.3482 53.3155 51.7865 53.3155 52.2253ZM54.1898 50.1276C54.4143 50.1164 54.6683 50.1131 54.921 50.0878C55.4048 50.0395 55.7455 49.7962 55.9232 49.3336C56.0137 49.0987 56.0099 48.8568 56.0123 48.6126C56.0193 47.9765 55.648 47.4553 55.0438 47.2397C54.5774 47.0732 54.0965 47.0704 53.6127 47.0836C53.4168 47.0887 53.3291 47.1745 53.3263 47.3718L53.2973 49.9448C53.2958 50.047 53.3399 50.0911 53.4393 50.0943L54.1898 50.1276Z" fill="#94795D"/>
<path fill-rule="evenodd" clip-rule="evenodd" d="M4.94134 54.5851L4.90712 55.0276C4.58837 55.0276 4.29446 55.0253 4.00056 55.0285C3.44696 55.0342 2.89337 55.0431 2.33931 55.051L2.28587 55.0543C2.20665 55.0449 2.06274 55.0449 2.05899 55.0215C2.03556 54.8898 2.04306 54.7515 2.04915 54.6151C2.04962 54.5996 2.10353 54.5799 2.13493 54.5724L2.56571 54.4763C2.83431 54.4065 2.92899 54.2907 2.94165 54.0132C2.95618 53.7006 2.97071 53.3874 2.97212 53.0748C2.97634 52.3051 2.97165 51.5363 2.97493 50.7667C2.9754 50.5867 2.91306 50.4526 2.74524 50.3795C2.54583 50.291 2.34502 50.2057 2.1429 50.1235C2.04728 50.0851 1.92306 50.064 1.93431 49.9356C1.94556 49.8048 2.06603 49.7706 2.17946 49.7448C2.64915 49.6374 3.11931 49.5329 3.58759 49.4185C3.73853 49.3815 3.8829 49.3192 4.06337 49.2563C4.07274 49.3538 4.09009 49.4467 4.08821 49.5395L4.06056 49.9806C4.06009 50.0303 4.08587 50.0968 4.1229 50.1245C4.1454 50.1418 4.22087 50.1104 4.25837 50.0813C4.65868 49.7767 5.08243 49.5137 5.56571 49.3604C6.31431 49.1228 6.95696 49.3431 7.40696 49.9885C7.5654 50.2159 7.56587 50.2159 7.78571 50.057C8.16306 49.7828 8.55774 49.5409 8.99931 49.3815C9.96868 49.0313 10.9001 49.4757 11.2371 50.4521C11.3599 50.8065 11.4068 51.1726 11.4059 51.5467L11.397 54.0301C11.3965 54.2349 11.4645 54.3517 11.6595 54.4154C11.8784 54.4871 12.1052 54.5363 12.3518 54.601L12.2946 55.0281C12.0143 55.0281 11.7565 55.0262 11.4987 55.0285C10.8687 55.0342 10.2387 55.0374 9.60915 55.052C9.49946 55.0548 9.47087 55.0276 9.46524 54.9249C9.44696 54.5963 9.44415 54.5968 9.75353 54.5228L9.85759 54.496C10.1599 54.4135 10.2607 54.3207 10.2631 54.0142C10.2701 53.1338 10.2884 52.2512 10.2438 51.3728C10.1974 50.4615 9.47415 49.9763 8.59103 50.2098C8.30602 50.2879 8.03759 50.4172 7.79884 50.5913C7.71681 50.6499 7.70134 50.7174 7.7079 50.8201C7.73321 51.2082 7.74774 51.5967 7.75149 51.9854C7.75712 52.6656 7.74868 53.3457 7.75149 54.0263C7.75243 54.302 7.84665 54.4074 8.11899 54.4712L8.52353 54.5645L8.59853 54.5813C8.60415 54.7107 8.60931 54.8401 8.60321 54.9695C8.59946 55.0506 8.53665 55.0576 8.46634 55.0562C8.07306 55.0463 7.67931 55.0332 7.28603 55.0342C6.80743 55.0351 6.32931 55.0487 5.85118 55.0571H5.73868C5.73868 54.9198 5.73212 54.7885 5.74337 54.6578C5.74571 54.6263 5.80103 54.5823 5.83899 54.5724L6.31056 54.4726C6.51071 54.4234 6.60634 54.3207 6.61759 54.1173C6.67103 53.1751 6.70946 52.2324 6.62087 51.2907C6.59924 51.1047 6.54763 50.9235 6.46806 50.754C6.22665 50.2206 5.68337 49.9979 5.05665 50.1582C4.75899 50.2342 4.4904 50.3706 4.23634 50.5426C4.1811 50.5769 4.13572 50.6249 4.10465 50.6821C4.07359 50.7392 4.05791 50.8034 4.05915 50.8684C4.05978 51.8084 4.06181 52.7481 4.06524 53.6874L4.0704 54.0498C4.07603 54.3024 4.18337 54.4356 4.43415 54.4899C4.5954 54.5265 4.75853 54.5513 4.94134 54.5851Z" fill="#50382B"/>
<path fill-rule="evenodd" clip-rule="evenodd" d="M33.2818 49.3524C33.3545 49.7058 33.3531 50.0236 33.0934 50.2646C32.8356 50.5041 32.5093 50.4235 32.191 50.37C32.2206 50.5378 32.2534 50.6803 32.2693 50.8247C32.3851 51.8977 31.9234 52.6941 30.9282 53.1493C30.5523 53.3208 30.1534 53.3846 29.746 53.4174C29.5435 53.4333 29.3663 53.588 29.3471 53.7544C29.3274 53.9232 29.4334 54.0966 29.6452 54.1472C29.8951 54.2068 30.1557 54.2236 30.4121 54.2532C30.9624 54.316 31.5188 54.3446 32.0626 54.443C32.8848 54.5911 33.3437 55.3088 33.1988 56.1347C33.0699 56.8697 32.6443 57.4046 32.0509 57.8147C31.051 58.5075 29.9541 58.71 28.786 58.3566C28.1181 58.1541 27.647 57.7149 27.4843 57.0043C27.4027 56.6485 27.4895 56.3264 27.7571 56.085C28.0754 55.7991 28.4218 55.5441 28.7551 55.2741L28.8629 55.1658L28.7391 55.0791C28.3993 54.9178 28.1274 54.6971 28.022 54.3136C27.9859 54.1838 28.0234 54.0985 28.1335 54.0319C28.321 53.9191 28.5074 53.8043 28.6927 53.6874C28.7799 53.633 28.8662 53.5768 28.9473 53.5139C29.0579 53.4296 29.0481 53.3668 28.9159 53.318C28.6084 53.2046 28.3351 53.04 28.1232 52.7869C27.7693 52.3646 27.669 51.8616 27.6981 51.3305C27.7435 50.5008 28.194 49.9543 28.9262 49.6027C29.7966 49.185 30.6699 49.1588 31.5573 49.5394C31.8854 49.68 32.2313 49.71 32.5834 49.6857C32.8463 49.6669 33.076 49.5675 33.2818 49.3524ZM30.0741 55.2966C29.4207 55.291 29.2159 55.3716 28.8324 55.7621C28.4031 56.1999 28.4054 56.8069 28.8338 57.2466C29.1591 57.5799 29.5651 57.736 30.0165 57.7828C30.5438 57.8372 31.0632 57.8152 31.5423 57.5513C32.0532 57.2686 32.3073 56.7436 32.1924 56.2149C32.0973 55.7785 31.7757 55.5788 31.3843 55.4639C30.939 55.3336 30.4787 55.3088 30.0741 55.2966ZM28.7907 51.121C28.8146 51.3024 28.8245 51.4861 28.8648 51.6638C28.9693 52.1241 29.1695 52.5286 29.6274 52.7335C30.1651 52.9749 30.8518 52.8713 31.0871 52.1166C31.248 51.6144 31.2293 51.0718 31.0341 50.5819C30.9518 50.3578 30.803 50.1641 30.6076 50.0269C30.1407 49.7011 29.2984 49.658 28.9552 50.378C28.8437 50.6119 28.8001 50.8608 28.7907 51.121Z" fill="#4F382B"/>
<path fill-rule="evenodd" clip-rule="evenodd" d="M22.1945 49.2366C22.2118 49.3167 22.2465 49.4076 22.2474 49.4991C22.2488 49.673 22.2301 49.8469 22.2202 50.0208V50.1717L22.3674 50.0592C22.7705 49.7273 23.2037 49.4447 23.708 49.2923C24.6184 49.0181 25.5277 49.5164 25.8245 50.4436C25.937 50.7961 25.9815 51.1584 25.9857 51.5269C25.9951 52.3453 26.0007 53.1637 26.0091 53.9822C26.012 54.2761 26.0457 54.3286 26.3237 54.4134C26.4819 54.4607 26.6432 54.4965 26.8065 54.5208C26.896 54.5348 26.9345 54.57 26.9298 54.6576L26.9307 54.7383C26.9274 55.0772 26.904 55.0926 26.5754 55.0917C25.7888 55.0903 25.0027 55.095 24.2162 55.1016C23.9818 55.1034 23.9813 55.1105 23.9579 54.8789L23.9532 54.7458C23.9677 54.5461 23.9724 54.548 24.1688 54.5189C24.301 54.4992 24.4323 54.4687 24.5612 54.435C24.6938 54.4008 24.7576 54.3028 24.7754 54.1716C24.7843 54.105 24.796 54.0384 24.7955 53.9719C24.7843 53.0775 24.7988 52.1822 24.7501 51.2892C24.7107 50.5669 24.1595 50.1366 23.4343 50.1858C23.0848 50.2101 22.7488 50.3306 22.4635 50.5341C22.2699 50.6695 22.231 50.865 22.232 51.0755C22.2363 51.9117 22.2432 52.7481 22.2526 53.5847C22.2545 53.768 22.2596 53.9512 22.277 54.1331C22.2952 54.3319 22.3651 54.412 22.5601 54.4551C22.7466 54.4964 22.937 54.5203 23.1362 54.5536L23.153 54.7073C23.1596 55.0659 23.1221 55.0926 22.7738 55.0912C21.9605 55.088 21.1473 55.0931 20.3345 55.102C20.2065 55.1039 20.1521 55.0636 20.1554 54.9389L20.1535 54.8855C20.1324 54.5625 20.1418 54.5503 20.4474 54.4978L20.5918 54.4687C20.9227 54.3942 21.0076 54.3061 21.0123 53.97C21.0277 52.9055 21.0334 51.8414 21.0441 50.7769C21.0455 50.6241 20.9879 50.5055 20.8454 50.4422C20.6454 50.3546 20.4443 50.2696 20.2421 50.1872C20.1305 50.1412 20.003 50.1122 19.9988 49.958C19.996 49.8492 20.1123 49.7531 20.2712 49.7208C20.5904 49.6561 20.9124 49.6022 21.2279 49.523C21.542 49.4447 21.8504 49.3397 22.1945 49.2366Z" fill="#4F372B"/>
<path fill-rule="evenodd" clip-rule="evenodd" d="M39.7812 52.0172C39.7662 53.0114 39.5079 53.8153 38.8048 54.4186C37.9141 55.184 36.5248 55.4442 35.389 54.8719C34.9043 54.6276 34.548 54.2531 34.316 53.767C33.9602 53.0194 33.8712 52.2333 34.0568 51.4279C34.2405 50.6315 34.7229 50.0545 35.4448 49.6809C36.1873 49.297 36.9691 49.147 37.7937 49.3486C38.8366 49.6031 39.5862 50.4534 39.7352 51.5362C39.7619 51.7261 39.7723 51.9183 39.7812 52.0172ZM38.5732 52.5558L38.5329 52.5511C38.5329 52.4573 38.538 52.3636 38.5319 52.2698C38.4977 51.6858 38.3665 51.1294 38.028 50.6404C37.7069 50.1773 37.2696 49.904 36.7005 49.8642C36.0635 49.8192 35.5282 50.1755 35.3402 50.8261C35.058 51.803 35.1537 52.755 35.6496 53.6498C35.8657 54.0398 36.1859 54.3276 36.6148 54.479C37.4552 54.7748 38.2005 54.3919 38.4194 53.5312C38.5001 53.2134 38.5235 52.8811 38.5732 52.5558Z" fill="#4F382B"/>
<path fill-rule="evenodd" clip-rule="evenodd" d="M19.1338 52.0941C19.1165 52.8075 18.9482 53.467 18.5076 54.0403C18.0355 54.6544 17.3868 54.9825 16.649 55.1208C15.7766 55.2839 14.9572 55.1358 14.2565 54.5503C13.9236 54.2719 13.6963 53.9152 13.5463 53.5092C13.3002 52.8436 13.2388 52.1616 13.3902 51.4664C13.5519 50.7225 13.9719 50.1539 14.623 49.7724C15.3758 49.3322 16.1882 49.1358 17.0558 49.3336C18.1715 49.5886 18.8155 50.3156 19.0536 51.4163C19.1015 51.6384 19.108 51.8681 19.1338 52.0941ZM17.9122 52.5647L17.8799 52.56V52.4259C17.8616 51.7716 17.7336 51.1481 17.3432 50.6044C17.054 50.2008 16.6668 49.9477 16.1704 49.8769C15.3613 49.7616 14.8326 50.2416 14.6572 50.8936C14.4285 51.7453 14.5002 52.5867 14.8541 53.3944C15.0749 53.8978 15.4236 54.2902 15.9594 54.4805C16.7947 54.7772 17.5513 54.3844 17.7627 53.527C17.8405 53.2134 17.864 52.8863 17.9122 52.5647Z" fill="#4F372B"/>
<path fill-rule="evenodd" clip-rule="evenodd" d="M38.6072 15.7238C39.1824 17.3864 39.5958 19.0838 39.7322 20.8425C39.901 23.025 39.8241 25.1925 39.3638 27.3389L39.3047 27.5105C39.1603 27.5109 39.0132 27.4927 38.8721 27.5147C37.68 27.7022 36.4894 27.8963 35.2983 28.0894C34.0669 28.2891 32.8346 28.4808 31.6055 28.6936C31.17 28.7686 30.631 28.6791 30.4552 29.2809L30.3708 29.3095L30.4303 25.7105L30.3699 17.0264L30.9436 16.928C31.8816 16.7747 32.8196 16.6186 33.7589 16.4691C34.8792 16.2914 36.0005 16.118 37.1217 15.9445C37.6167 15.8686 38.1122 15.7978 38.6072 15.7238Z" fill="#439934"/>
<path fill-rule="evenodd" clip-rule="evenodd" d="M29.1862 39.802C28.5811 39.2817 27.9548 38.7844 27.375 38.2369C24.254 35.2931 21.9707 31.8276 20.8462 27.6497C20.5364 26.5003 20.3301 25.3317 20.2636 24.1439C20.2167 23.3123 20.1497 22.4737 20.2087 21.6464C20.3648 19.4466 20.6831 17.2678 21.3281 15.1486L21.3637 15.0994C21.4265 15.1828 21.5165 15.2569 21.5484 15.3511C22.1781 17.2055 22.8037 19.0616 23.4253 20.9194C25.3795 26.7558 27.3314 32.5936 29.2889 38.4291C29.3273 38.543 29.4262 38.6362 29.4975 38.7389L29.1862 39.802Z" fill="#45A538"/>
<path fill-rule="evenodd" clip-rule="evenodd" d="M38.6067 15.7237C38.1113 15.7973 37.6158 15.8685 37.1213 15.9445C36 16.1179 34.8788 16.2913 33.7585 16.469C32.8196 16.6181 31.8816 16.7741 30.9432 16.9279L30.3694 17.0263L30.3647 16.6523C30.3455 16.3448 30.3136 16.0373 30.3094 15.7298L30.2452 9.84508C30.2302 8.61743 30.2077 7.38977 30.1828 6.16258C30.1702 5.39984 30.1482 4.63728 30.1167 3.87508C30.098 3.46586 30.0319 3.05852 30.0057 2.6493C29.9902 2.41399 30.0108 2.1768 30.016 1.94055C30.3085 2.50727 30.5949 3.07821 30.8953 3.64071C31.3702 4.52993 32.1272 5.18524 32.8092 5.90008C35.5027 8.72711 37.4147 12.0121 38.6067 15.7237Z" fill="#46A037"/>
<path fill-rule="evenodd" clip-rule="evenodd" d="M30.3713 29.3095L30.4557 29.2809C30.6315 28.6791 31.1706 28.7686 31.606 28.6936C32.8351 28.4808 34.0674 28.2891 35.2988 28.0894C36.4899 27.8967 37.6806 27.7026 38.8726 27.5147C39.0137 27.4926 39.1609 27.5109 39.3052 27.5105C39.0826 28.3055 38.9073 29.1178 38.6246 29.8908C38.3035 30.7673 37.9154 31.6233 37.5034 32.4623C36.8861 33.7136 36.1225 34.8871 35.2285 35.9583C34.5413 36.7842 33.7754 37.5487 33.0081 38.303C32.5834 38.7197 32.0837 39.0595 31.6177 39.4345L31.4968 39.352L31.0623 38.9808L30.6127 37.9945C30.3058 36.8444 30.1382 35.6615 30.1135 34.4714L30.122 34.2708L30.1834 33.4017C30.2035 33.105 30.2307 32.8087 30.2434 32.512C30.2884 31.4451 30.3287 30.3773 30.3713 29.3095Z" fill="#409433"/>
<path fill-rule="evenodd" clip-rule="evenodd" d="M30.3718 29.3095C30.3296 30.3773 30.2893 31.4456 30.2438 32.5134C30.2312 32.8106 30.2044 33.1069 30.1838 33.4031L29.9101 33.5067C29.3016 31.7156 28.6927 29.9433 28.0974 28.1667C27.1126 25.2272 26.1399 22.2834 25.1565 19.343C24.3623 16.9698 23.5626 14.5986 22.7574 12.2292C22.7194 12.1186 22.6116 12.0314 22.5366 11.9334L24.2897 8.70984C24.3502 8.81437 24.4294 8.91234 24.4674 9.02484C25.2783 11.4248 26.0879 13.8253 26.8904 16.2281C27.9347 19.3547 28.9721 22.4827 30.0155 25.6097C30.0572 25.7344 30.1257 25.8497 30.1913 25.9898L30.4313 25.7105L30.3718 29.3095Z" fill="#4FAA41"/>
<path fill-rule="evenodd" clip-rule="evenodd" d="M22.5366 11.9335C22.6121 12.0314 22.7199 12.1186 22.7574 12.2293C23.5627 14.5986 24.3624 16.9699 25.1565 19.343C26.1399 22.2835 27.1126 25.2272 28.0974 28.1668C28.6927 29.9433 29.3016 31.7152 29.9101 33.5068L30.1838 33.4032L30.1224 34.2722L30.0666 34.4724C29.9715 35.4235 29.8913 36.3764 29.7751 37.3257C29.7169 37.8014 29.5927 38.2683 29.4985 38.7389C29.4277 38.6363 29.3283 38.543 29.2899 38.4291C27.3319 32.5936 25.3805 26.7558 23.4263 20.9194C22.8045 19.062 22.1789 17.2059 21.5494 15.3511C21.5176 15.2569 21.4276 15.1828 21.3647 15.0994L22.5366 11.9335Z" fill="#4AA73C"/>
<path fill-rule="evenodd" clip-rule="evenodd" d="M30.4287 25.7105L30.1887 25.9899C30.123 25.8498 30.0546 25.7344 30.0129 25.6098C28.9695 22.4827 27.9321 19.3548 26.8877 16.2282C26.0843 13.8257 25.2766 11.4246 24.4648 9.02491C24.4268 8.91241 24.3476 8.81444 24.2871 8.70991L26.4551 5.85803C26.5235 5.94897 26.621 6.03006 26.6562 6.13272C27.2577 7.89522 27.8549 9.65913 28.4477 11.4244C29.0018 13.0735 29.5474 14.7244 30.108 16.3707C30.1455 16.4808 30.2763 16.5587 30.3635 16.6524L30.3682 17.0265L30.4287 25.7105Z" fill="#57AE47"/>
<path fill-rule="evenodd" clip-rule="evenodd" d="M30.3635 16.6524C30.2759 16.5591 30.1455 16.4813 30.108 16.3707C29.5479 14.7244 29.0018 13.0735 28.4477 11.4244C27.8548 9.65911 27.2576 7.8952 26.6562 6.13272C26.621 6.03007 26.5235 5.94897 26.4551 5.85804C27.1601 5.16757 27.843 4.45226 28.5766 3.79366C29.2287 3.20866 29.7527 2.58147 29.7771 1.65663L29.8287 1.47241L30.0143 1.94022C30.0096 2.17647 29.9885 2.41366 30.004 2.64897C30.0307 3.05819 30.0968 3.46554 30.1151 3.87476C30.1493 4.63647 30.1657 5.3996 30.1812 6.16226C30.206 7.38944 30.2285 8.6171 30.2435 9.84476L30.3077 15.7294C30.3124 16.0374 30.3448 16.3449 30.3635 16.6524Z" fill="#60B24F"/>
<path fill-rule="evenodd" clip-rule="evenodd" d="M29.4987 38.7385C29.5929 38.2678 29.7172 37.801 29.7753 37.3252C29.8915 36.3764 29.9717 35.423 30.0669 34.4719L30.0908 34.4681L30.1142 34.4724C30.1389 35.6625 30.3065 36.8453 30.6134 37.9955C30.5501 38.0789 30.4615 38.1525 30.4278 38.2463C30.1676 38.9803 29.922 39.7205 29.6604 40.4541C29.6248 40.5544 29.5245 40.6327 29.4547 40.7203L29.187 39.8016L29.4987 38.7385Z" fill="#A9AA88"/>
<path fill-rule="evenodd" clip-rule="evenodd" d="M29.4543 40.7208C29.5242 40.6327 29.6245 40.5549 29.6601 40.4546C29.9217 39.721 30.1673 38.9808 30.4275 38.2468C30.4608 38.153 30.5498 38.0794 30.6131 37.996L31.0626 38.9822C30.974 39.1078 30.8512 39.2218 30.802 39.3619L29.9414 41.8894C29.9058 41.9911 29.7853 42.0624 29.7037 42.1482L29.4543 40.7208Z" fill="#B6B598"/>
<path fill-rule="evenodd" clip-rule="evenodd" d="M29.7034 42.1476C29.7845 42.0618 29.9054 41.9906 29.941 41.8889L30.8016 39.3614C30.8504 39.2212 30.9737 39.1073 31.0623 38.9817L31.4973 39.3525C31.2873 39.5601 31.1706 39.8001 31.2409 40.1034L31.1087 40.5361C31.0487 40.6101 30.9615 40.6748 30.932 40.7597C30.6315 41.6203 30.3451 42.4856 30.0423 43.3458C30.0038 43.4545 29.8974 43.5403 29.8229 43.6368L29.7034 42.1476Z" fill="#C2C1A7"/>
<path fill-rule="evenodd" clip-rule="evenodd" d="M29.8226 43.6364C29.8976 43.5399 30.004 43.4541 30.0419 43.3453C30.3448 42.4852 30.6316 41.6199 30.9316 40.7592C30.9612 40.6744 31.0483 40.6102 31.1083 40.5356L30.926 42.5213C30.8773 42.5775 30.8069 42.6267 30.7835 42.6919L30.1769 44.43C30.1343 44.5486 30.0527 44.6546 29.989 44.7656C29.9323 44.6916 29.831 44.6199 29.8263 44.543C29.8085 44.2421 29.8212 43.9388 29.8226 43.6364Z" fill="#CECDB7"/>
<path fill-rule="evenodd" clip-rule="evenodd" d="M29.989 44.7661C30.0528 44.655 30.1343 44.5491 30.177 44.4305L30.7835 42.6924C30.807 42.6267 30.8778 42.578 30.926 42.5217L30.9307 43.8249L30.4943 44.9438L29.989 44.7661Z" fill="#DBDAC7"/>
<path fill-rule="evenodd" clip-rule="evenodd" d="M30.4944 44.9437L30.9308 43.8248L31.0208 45.1486L30.4944 44.9437Z" fill="#EBE9DC"/>
<path fill-rule="evenodd" clip-rule="evenodd" d="M31.2398 40.1034C31.17 39.8005 31.2862 39.5605 31.4962 39.3524L31.6171 39.4349L31.2398 40.1034Z" fill="#CECDB7"/>
<path fill-rule="evenodd" clip-rule="evenodd" d="M30.1133 34.4728L30.0898 34.4686L30.0659 34.4724L30.1217 34.2722L30.1133 34.4728Z" fill="#4FAA41"/>
</svg>
