<svg width="48" height="60" viewBox="0 0 48 60" fill="none" xmlns="http://www.w3.org/2000/svg">
<path d="M24.0012 26.625C26.4088 26.625 28.3606 24.6732 28.3606 22.2656C28.3606 19.858 26.4088 17.9062 24.0012 17.9062C21.5936 17.9062 19.6418 19.858 19.6418 22.2656C19.6418 24.6732 21.5936 26.625 24.0012 26.625Z" fill="#61DAFB"/>
<path d="M24.0005 38.2969C27.4224 41.625 30.7974 43.5938 33.5161 43.5938C34.4067 43.5938 35.2505 43.4062 35.9536 42.9844C38.3911 41.5781 39.2817 38.0625 38.438 33.0469C38.2974 32.1562 38.1099 31.2656 37.8755 30.3281C38.813 30.0469 39.6567 29.7656 40.5005 29.4844C45.2349 27.6563 47.8599 25.125 47.8599 22.3594C47.8599 19.5469 45.2349 17.0156 40.5005 15.2344C39.6567 14.9062 38.813 14.625 37.8755 14.3906C38.1099 13.4531 38.2974 12.5625 38.438 11.6719C39.2349 6.5625 38.3442 3 35.9067 1.59375C35.2036 1.17188 34.3599 0.984375 33.4692 0.984375C30.7974 0.984375 27.3755 2.95312 23.9536 6.28125C20.5786 2.95312 17.2036 0.984375 14.4849 0.984375C13.5942 0.984375 12.7505 1.17188 12.0474 1.59375C9.60986 3 8.71924 6.51562 9.56299 11.5312C9.70361 12.4219 9.89111 13.3125 10.1255 14.25C9.18799 14.5312 8.34424 14.8125 7.50049 15.0938C2.76611 16.9219 0.141113 19.4531 0.141113 22.2188C0.141113 25.0313 2.76611 27.5625 7.50049 29.3438C8.34424 29.6719 9.18799 29.9531 10.1255 30.1875C9.89111 31.125 9.70361 32.0156 9.56299 32.9062C8.76611 37.9219 9.65674 41.4844 12.0474 42.8438C12.7505 43.2656 13.5942 43.4531 14.4849 43.4531C17.2036 43.5469 20.5786 41.5781 24.0005 38.2969ZM21.3755 31.9688C22.2192 32.0156 23.1099 32.0156 24.0005 32.0156C24.8911 32.0156 25.7817 32.0156 26.6255 31.9688C25.7817 33.0938 24.8911 34.125 24.0005 35.1094C23.1099 34.125 22.2192 33.0938 21.3755 31.9688ZM15.563 27.1406C16.0317 27.9375 16.4536 28.6875 16.9692 29.4375C15.5161 29.25 14.1567 29.0156 12.8442 28.7344C13.2661 27.4688 13.7349 26.1562 14.2974 24.8438C14.6724 25.5938 15.0942 26.3906 15.563 27.1406ZM12.8442 15.8437C14.1567 15.5625 15.5161 15.3281 16.9692 15.1406C16.5005 15.8906 16.0317 16.6406 15.563 17.4375C15.0942 18.2344 14.6724 18.9844 14.2974 19.7813C13.688 18.4219 13.2192 17.1094 12.8442 15.8437ZM15.4224 22.2656C16.0317 21 16.688 19.7344 17.438 18.4688C18.1411 17.25 18.938 16.0312 19.7349 14.8125C21.1411 14.7188 22.5474 14.6719 24.0005 14.6719C25.5005 14.6719 26.9067 14.7188 28.2661 14.8125C29.1099 16.0312 29.8599 17.25 30.563 18.4688C31.313 19.7344 31.9692 21 32.5786 22.2656C31.9692 23.5312 31.313 24.7969 30.563 26.0625C29.8599 27.2812 29.063 28.5 28.2661 29.7188C26.8599 29.8125 25.4536 29.8594 24.0005 29.8594C22.5005 29.8594 21.0942 29.8125 19.7349 29.7188C18.8911 28.5 18.1411 27.2812 17.438 26.0625C16.688 24.7969 16.0317 23.5312 15.4224 22.2656ZM33.7505 19.7344L32.4849 17.3906C32.0161 16.5938 31.5942 15.8438 31.0786 15.0938C32.5317 15.2812 33.8911 15.5156 35.2036 15.7969C34.7817 17.1094 34.313 18.4219 33.7505 19.7344ZM33.7505 24.7969C34.313 26.1094 34.7817 27.4219 35.2036 28.6875C33.8911 28.9688 32.5317 29.2031 31.0786 29.3906C31.5474 28.6406 32.0161 27.8906 32.4849 27.0938C32.9067 26.3906 33.3286 25.5938 33.7505 24.7969ZM34.8286 41.0625C34.4536 41.2969 33.9849 41.3906 33.4692 41.3906C31.1724 41.3906 28.313 39.5156 25.5005 36.7031C26.8599 35.25 28.1724 33.6094 29.4849 31.7813C31.688 31.5938 33.7974 31.2656 35.7661 30.7969C36.0005 31.6406 36.1411 32.4844 36.2817 33.3281C36.938 37.3125 36.4224 40.1719 34.8286 41.0625ZM37.2661 16.3594C42.5161 17.8594 45.6567 20.1562 45.6567 22.2656C45.6567 24.0938 43.5005 25.9219 39.7036 27.375C38.9536 27.6563 38.1099 27.9375 37.2661 28.1719C36.6567 26.25 35.9067 24.2812 34.9692 22.2656C35.9067 20.25 36.7036 18.2813 37.2661 16.3594ZM33.5161 3.14062C34.0317 3.14062 34.4536 3.23438 34.8755 3.46875C36.4224 4.35938 36.9849 7.17187 36.3286 11.2031C36.188 12 36.0005 12.8437 35.813 13.7344C33.8442 13.3125 31.7349 12.9844 29.5317 12.75C28.2661 10.9219 26.9067 9.28125 25.5474 7.82812C28.3599 5.0625 31.2192 3.14062 33.5161 3.14062ZM26.6255 12.5625C25.7817 12.5156 24.8911 12.5156 24.0005 12.5156C23.1099 12.5156 22.2192 12.5156 21.3755 12.5625C22.2192 11.4375 23.1099 10.4062 24.0005 9.42188C24.8911 10.4062 25.7817 11.4844 26.6255 12.5625ZM13.1724 3.46875C13.5474 3.23438 14.0161 3.14062 14.5317 3.14062C16.8286 3.14062 19.688 5.01562 22.5005 7.82812C21.1411 9.28125 19.8286 10.9219 18.5161 12.75C16.313 12.9375 14.2036 13.2656 12.2349 13.7344C12.0005 12.8906 11.8599 12.0469 11.7192 11.2031C11.063 7.21875 11.5786 4.40625 13.1724 3.46875ZM10.7349 28.1719C5.48486 26.6719 2.34424 24.375 2.34424 22.2656C2.34424 20.4375 4.50049 18.6094 8.29736 17.1562C9.04736 16.875 9.89111 16.5938 10.7349 16.3594C11.3442 18.2813 12.0942 20.25 13.0317 22.2656C12.0942 24.2812 11.2974 26.2969 10.7349 28.1719ZM11.7192 33.3281C11.8599 32.5312 12.0474 31.6875 12.2349 30.7969C14.2036 31.2188 16.313 31.5469 18.5161 31.7813C19.7817 33.6094 21.1411 35.25 22.5005 36.7031C19.688 39.4688 16.8286 41.3906 14.5317 41.3906C14.0161 41.3906 13.5942 41.2969 13.1724 41.0625C11.5786 40.1719 11.063 37.3125 11.7192 33.3281ZM9.75049 52.6406C10.7817 51.375 10.8286 49.9688 10.2661 48.5625C9.70361 47.1562 8.53174 46.5 7.07861 46.4531C5.34424 46.4062 3.56299 46.4531 1.82861 46.4531H1.50049V58.5938H2.90674V54H5.10986C5.39111 54 5.62549 54.0938 5.76611 54.3281L8.57861 58.6875C8.62549 58.7812 8.76611 58.9219 8.85986 58.9219H10.688C9.56299 57.1875 8.48486 55.5469 7.35986 53.8594C8.34424 53.7188 9.18799 53.3906 9.75049 52.6406ZM2.90674 52.5469V47.9062H3.42236C4.50049 47.9062 5.62549 47.8594 6.70361 47.9531C7.96924 48 8.85986 48.9844 8.85986 50.25C8.85986 51.5156 7.82861 52.5 6.56299 52.5469C5.43799 52.5938 4.31299 52.5469 2.90674 52.5469ZM21.0474 53.1562C20.2974 49.875 17.2974 49.0313 15.0005 50.0625C13.2192 50.8594 12.4224 52.4062 12.3755 54.3281C12.3286 55.7812 12.7505 57.0938 13.8755 58.0781C15.1411 59.2031 16.688 59.3438 18.2817 59.0625C19.1724 58.875 19.9692 58.4531 20.5786 57.7969C20.3442 57.4688 20.1099 57.1406 19.8755 56.8594C18.563 57.9844 17.1099 58.3594 15.5161 57.6094C14.4849 57.0938 13.9692 55.8281 13.8755 54.8906H21.1411V54.2813C21.188 53.8594 21.1411 53.4844 21.0474 53.1562ZM13.9692 53.9062C13.8286 52.5 15.2349 51 16.7817 51C18.563 50.9531 19.688 52.0312 19.7349 53.9062H13.9692ZM28.3599 49.8281C27.6567 49.6875 26.9067 49.6406 26.2036 49.6875C25.0786 49.7812 24.0942 50.2969 23.2974 51.1406C23.5317 51.4688 23.7192 51.7969 24.0005 52.1719C24.0942 52.0781 24.188 51.9844 24.2817 51.9375C25.0317 51.2344 25.9224 50.8594 27.0005 50.9531C27.8442 51 28.6411 51.2812 28.8755 52.125C29.063 52.7812 29.0161 53.4844 29.063 54.1875C28.9224 54.1875 28.8755 54.1406 28.8286 54.0938C27.7036 53.1562 26.438 52.9688 25.0786 53.2969C23.813 53.625 23.0161 54.6094 22.9224 55.875C22.8286 57.3281 23.4849 58.4062 24.7505 58.9219C25.5474 59.25 26.438 59.25 27.2817 59.0625C27.938 58.9219 28.2192 58.5469 29.1567 58.0313V58.6406H30.4692C30.4692 56.7656 30.5161 54.4688 30.4692 52.3125C30.4692 50.9531 29.6724 50.1094 28.3599 49.8281ZM29.0161 55.7344C28.9692 55.875 29.0161 56.0156 29.0161 56.1563C29.0161 57.1406 28.7817 57.4688 27.8442 57.8438C27.188 58.0781 26.4849 58.1719 25.7817 57.9375C24.9849 57.7031 24.4224 57 24.4224 56.2031C24.3755 55.4062 24.8911 54.6094 25.688 54.375C26.7661 54 27.7505 54.2344 28.6411 54.8906C28.9224 55.125 29.1099 55.3594 29.0161 55.7344ZM36.3286 51.0938C37.5474 50.7188 38.6724 50.9531 39.5161 51.9844L39.6567 52.0781C39.9849 51.7969 40.2661 51.5156 40.6411 51.1875C40.5005 51.0469 40.4536 50.9531 40.3599 50.8125C39.0005 49.3594 36.3286 49.1719 34.688 50.3438C32.3911 52.0312 32.438 55.3125 33.563 57.0469C34.6411 58.6875 36.188 59.25 38.0161 59.0156C39.0942 58.875 39.9849 58.3594 40.688 57.4688C40.3599 57.1875 40.0317 56.9062 39.7036 56.5781C39.6099 56.6719 39.563 56.7188 39.5161 56.8125C38.2505 58.2188 36.1411 58.0781 35.0161 56.5781C34.3599 55.6875 34.2192 54.6562 34.4067 53.625C34.5005 52.4531 35.1099 51.5156 36.3286 51.0938ZM46.0786 57.4688C45.9849 57.5156 45.938 57.5625 45.938 57.5625C45.563 57.8438 45.188 57.8906 44.7661 57.75C44.3442 57.5625 44.2974 57.1875 44.2505 56.8125V51.4688C44.2505 51.375 44.2505 51.5625 44.2974 51.0938H46.0786V49.6875H44.2036V47.3438H42.7974V49.875H41.5786C41.4849 49.875 41.3442 49.9688 41.3442 50.0625C41.2974 50.3906 41.3442 50.625 41.3442 51.0938H42.8442V57.0938C42.8442 57.8438 43.0317 58.5 43.688 58.875C44.3911 59.2969 45.7505 59.2031 46.3599 58.6875C46.4536 58.6406 46.5005 58.4531 46.5005 58.4062C46.3599 58.125 46.2192 57.7969 46.0786 57.4688Z" fill="#61DAFB"/>
</svg>
