<svg width="217" height="222" viewBox="0 0 217 222" fill="none" xmlns="http://www.w3.org/2000/svg">
<path d="M132.746 125.308H153.573C161.418 125.322 169.052 127.848 175.356 132.517C181.66 137.186 186.303 143.752 188.603 151.252L199.853 187.944C200.257 189.254 200.348 190.642 200.118 191.994C199.889 193.346 199.345 194.625 198.531 195.728C197.717 196.832 196.655 197.729 195.431 198.348C194.207 198.966 192.855 199.289 191.484 199.29H94.763C93.3916 199.289 92.0396 198.966 90.8157 198.348C89.5917 197.729 88.53 196.832 87.716 195.728C86.9019 194.625 86.3582 193.346 86.1286 191.994C85.899 190.642 85.99 189.254 86.3941 187.944L97.6443 151.252C99.9477 143.74 104.601 137.166 110.92 132.496C117.238 127.825 124.889 125.306 132.746 125.308Z" fill="#68E1FD"/>
<path d="M191.52 200.485H94.7989C93.2374 200.49 91.6966 200.128 90.3007 199.428C88.9047 198.728 87.6927 197.711 86.7621 196.457C85.8315 195.203 85.2085 193.748 84.9431 192.209C84.6778 190.67 84.7775 189.09 85.2344 187.597L96.5444 150.905C98.8942 143.135 103.689 136.331 110.215 131.504C116.742 126.677 124.652 124.085 132.77 124.113H153.573C161.69 124.085 169.601 126.677 176.127 131.504C182.654 136.331 187.448 143.135 189.798 150.905L201.049 187.597C201.505 189.09 201.605 190.67 201.34 192.209C201.074 193.748 200.451 195.203 199.521 196.457C198.59 197.711 197.378 198.728 195.982 199.428C194.586 200.128 193.046 200.49 191.484 200.485H191.52ZM132.746 126.504C125.14 126.477 117.728 128.906 111.612 133.43C105.497 137.953 101.005 144.33 98.804 151.611L87.5538 188.303C87.2086 189.436 87.1335 190.634 87.3344 191.802C87.5353 192.969 88.0067 194.074 88.7108 195.027C89.4149 195.979 90.3322 196.754 91.3894 197.289C92.4465 197.824 93.6142 198.104 94.7989 198.106H191.52C192.705 198.104 193.872 197.824 194.929 197.289C195.987 196.754 196.904 195.979 197.608 195.027C198.312 194.074 198.783 192.969 198.984 191.802C199.185 190.634 199.11 189.436 198.765 188.303L187.515 151.611C185.314 144.33 180.822 137.953 174.707 133.43C168.591 128.906 161.179 126.477 153.573 126.504H132.746Z" fill="#093F68"/>
<path d="M136.8 121.172H149.52V128.489C149.52 129.198 149.381 129.901 149.109 130.557C148.837 131.212 148.439 131.808 147.938 132.31C147.436 132.812 146.84 133.21 146.184 133.481C145.529 133.753 144.826 133.893 144.116 133.893H142.192C140.758 133.893 139.384 133.323 138.37 132.31C137.357 131.296 136.788 129.922 136.788 128.489V121.172H136.8Z" fill="#FFC9B0"/>
<path d="M144.116 135.076H142.203C140.455 135.076 138.778 134.383 137.541 133.147C136.303 131.912 135.607 130.237 135.603 128.489V121.172C135.603 120.855 135.729 120.551 135.954 120.326C136.178 120.102 136.482 119.976 136.799 119.976H149.52C149.837 119.976 150.141 120.102 150.365 120.326C150.589 120.551 150.715 120.855 150.715 121.172V128.489C150.712 130.237 150.015 131.912 148.778 133.147C147.541 134.383 145.864 135.076 144.116 135.076ZM137.995 122.367V128.489C137.998 129.603 138.442 130.67 139.231 131.457C140.02 132.243 141.089 132.685 142.203 132.685H144.116C145.23 132.685 146.298 132.243 147.087 131.457C147.876 130.67 148.321 129.603 148.324 128.489V122.367H137.995Z" fill="#093F68"/>
<path d="M99.2576 85.8908C93.3515 83.6551 93.7102 79.1358 92.8254 73.3493C91.9394 67.616 91.3925 61.8354 91.1875 56.0376C90.9604 49.45 91.1875 42.6832 93.6982 36.5738C96.9143 28.719 103.263 23.6498 111.739 24.3432C111.488 12.7702 118.434 1.91446 130.737 1.2569C150.452 0.20481 161.821 21.3782 172.832 19.8001C183.844 18.2219 186.797 13.3201 186.797 13.3201C188.647 16.861 189.407 20.8704 188.981 24.8428C188.556 28.8152 186.964 32.5726 184.406 35.6413C184.406 35.6413 193.097 33.1067 194.149 44.6678C195.201 56.2289 188.279 86.9548 188.279 86.9548L180.424 85.6158C177.113 85.03 172.976 85.8429 169.664 85.9505L145.024 86.7157C132.662 87.0624 112.672 90.96 99.2576 85.8908Z" fill="#725858"/>
<path d="M117.024 89.6568C110.544 89.6568 104.172 89.0231 98.8278 87.0026C93.1011 84.8267 92.575 80.6901 91.9653 75.8959C91.8697 75.0988 91.7621 74.3018 91.6425 73.5047C90.7514 67.7236 90.2005 61.8952 89.9926 56.0495C89.7774 49.8685 89.9209 42.6473 92.599 36.1075C96.0063 27.7386 102.367 23.064 110.174 23.064H110.544C110.807 11.9333 117.634 0.730853 130.678 0.0374266C142.143 -0.560355 151.002 6.12284 158.08 11.4909C163.556 15.6395 168.29 19.2143 172.654 18.5926C182.876 17.134 185.805 12.7223 185.805 12.6745C185.914 12.5005 186.065 12.3574 186.246 12.259C186.426 12.1606 186.628 12.1102 186.833 12.1126C187.041 12.1126 187.245 12.1667 187.425 12.2694C187.605 12.3721 187.756 12.52 187.861 12.6984C187.921 12.806 193.911 23.3629 186.953 34.2186C188.438 34.2857 189.876 34.7569 191.113 35.5815C193.504 37.2553 194.999 40.2681 195.381 44.5602C196.446 56.181 189.786 85.9505 189.499 87.2178C189.43 87.5167 189.249 87.7778 188.993 87.9469C188.737 88.116 188.426 88.1803 188.124 88.1265L180.234 86.8113C177.899 86.5521 175.542 86.5843 173.216 86.907C172.02 87.0266 170.825 87.1341 169.629 87.17L144.989 87.9352C141.916 88.0308 138.305 88.3536 134.491 88.6884C129.099 89.1188 123.014 89.6568 117.024 89.6568ZM99.6767 84.7669C109.456 88.4732 123.241 87.2417 134.348 86.2494C138.198 85.9027 141.844 85.5799 144.989 85.4843L169.629 84.7191C170.669 84.7191 171.805 84.5756 173.001 84.468C175.537 84.1164 178.109 84.0923 180.652 84.3963C181.071 84.3963 182.434 84.6952 187.407 85.5919C188.603 79.9966 193.911 54.8061 193.002 44.7873C192.679 41.2006 191.603 38.8095 189.786 37.614C189.048 37.1565 188.225 36.8511 187.367 36.7156C186.509 36.5801 185.632 36.6172 184.789 36.8249C184.544 36.895 184.284 36.8853 184.045 36.7971C183.806 36.709 183.602 36.547 183.462 36.3347C183.322 36.1224 183.254 35.8713 183.267 35.6176C183.28 35.3639 183.373 35.121 183.533 34.9239C185.774 32.2782 187.239 29.0642 187.767 25.6376C188.294 22.2109 187.863 18.7051 186.522 15.508C184.693 17.2296 180.712 19.9196 173.024 21.0196C167.668 21.7728 162.563 17.923 156.657 13.4636C149.484 8.0477 141.414 1.92642 130.833 2.48833C118.806 3.12198 112.732 13.9777 112.959 24.3552C112.962 24.5231 112.93 24.6898 112.864 24.8443C112.798 24.9988 112.7 25.1376 112.577 25.2518C112.455 25.3673 112.31 25.4558 112.151 25.5114C111.992 25.567 111.824 25.5886 111.656 25.5746C104.196 24.9529 98.0627 29.1613 94.8347 37.064C92.3359 43.1972 92.2044 50.0956 92.4435 56.0256C92.6453 61.775 93.1842 67.5076 94.0575 73.1939C94.1891 74.0427 94.2966 74.8438 94.3923 75.585C94.9662 80.1042 95.3487 83.0931 99.7365 84.755L99.6767 84.7669Z" fill="#093F68"/>
<path d="M106.814 98.7789C113.635 98.7789 119.164 94.015 119.164 88.1384C119.164 82.2618 113.635 77.4979 106.814 77.4979C99.9933 77.4979 94.4639 82.2618 94.4639 88.1384C94.4639 94.015 99.9933 98.7789 106.814 98.7789Z" fill="#FFC9B0"/>
<path d="M106.814 99.9625C99.3422 99.9625 93.2688 94.6542 93.2688 88.1265C93.2688 81.5987 99.3422 76.2784 106.814 76.2784C114.287 76.2784 120.372 81.5987 120.372 88.1265C120.372 94.6542 114.287 99.9625 106.814 99.9625ZM106.814 78.6696C100.669 78.6696 95.6599 82.9138 95.6599 88.1265C95.6599 93.3391 100.669 97.5714 106.814 97.5714C112.96 97.5714 117.981 93.3391 117.981 88.1265C117.981 82.9138 112.972 78.6815 106.814 78.6815V78.6696Z" fill="#093F68"/>
<path d="M178.846 98.7789C185.667 98.7789 191.197 94.015 191.197 88.1384C191.197 82.2618 185.667 77.4979 178.846 77.4979C172.026 77.4979 166.496 82.2618 166.496 88.1384C166.496 94.015 172.026 98.7789 178.846 98.7789Z" fill="#FFC9B0"/>
<path d="M178.847 99.9625C171.375 99.9625 165.289 94.6542 165.289 88.1265C165.289 81.5987 171.375 76.2784 178.847 76.2784C186.319 76.2784 192.393 81.5987 192.393 88.1265C192.393 94.6542 186.319 99.9625 178.847 99.9625ZM178.847 78.6696C172.69 78.6696 167.681 82.9138 167.681 88.1265C167.681 93.3391 172.69 97.5714 178.847 97.5714C185.004 97.5714 190.002 93.3391 190.002 88.1265C190.002 82.9138 185.016 78.6815 178.847 78.6815V78.6696Z" fill="#093F68"/>
<path d="M143.172 122.834C133.294 122.837 123.82 118.919 116.83 111.94C109.84 104.961 105.907 95.4931 105.894 85.6158V58.5244C108.07 62.1111 115.303 60.6764 125.908 42.4919C165.6 62.6012 180.425 51.076 180.425 51.076V85.6158C180.413 95.4889 176.483 104.954 169.498 111.932C162.513 118.91 153.045 122.831 143.172 122.834Z" fill="#FFC9B0"/>
<path d="M143.171 124.029C132.98 124.023 123.207 119.976 115.995 112.775C108.783 105.574 104.72 95.8072 104.698 85.6158V58.5243C104.696 58.2614 104.78 58.0049 104.938 57.7946C105.096 57.5844 105.318 57.432 105.572 57.3612C105.825 57.2904 106.095 57.3051 106.339 57.403C106.583 57.5009 106.788 57.6765 106.922 57.9026C107.105 58.2212 107.373 58.4826 107.696 58.6578C108.019 58.833 108.384 58.9151 108.751 58.895C110.21 58.895 115.685 57.6157 124.855 41.8821C125.003 41.6109 125.249 41.4071 125.543 41.3135C125.837 41.22 126.156 41.2438 126.433 41.38C164.787 60.8079 179.54 50.1913 179.684 50.0837C179.861 49.947 180.074 49.8629 180.297 49.8411C180.52 49.8193 180.744 49.8606 180.945 49.9603C181.146 50.0601 181.314 50.2142 181.432 50.4051C181.549 50.596 181.61 50.816 181.609 51.0401V85.6158C181.587 95.801 177.529 105.562 170.325 112.762C163.12 119.962 153.357 124.013 143.171 124.029ZM107.101 60.9992V85.6158C107.101 95.1822 110.901 104.357 117.666 111.121C124.43 117.886 133.605 121.686 143.171 121.686C152.738 121.686 161.912 117.886 168.677 111.121C175.441 104.357 179.241 95.1822 179.241 85.6158V53.1324C174.077 55.5235 158.211 59.9231 126.386 44.058C119.786 55.1409 113.557 61.2502 108.811 61.2861C108.223 61.3147 107.636 61.2169 107.089 60.9992H107.101Z" fill="#093F68"/>
<path d="M167.082 190.491C166.765 190.491 166.461 190.365 166.237 190.14C166.013 189.916 165.887 189.612 165.887 189.295V145.561C165.887 145.244 166.013 144.94 166.237 144.716C166.461 144.492 166.765 144.366 167.082 144.366C167.399 144.366 167.703 144.492 167.928 144.716C168.152 144.94 168.278 145.244 168.278 145.561V189.295C168.278 189.612 168.152 189.916 167.928 190.14C167.703 190.365 167.399 190.491 167.082 190.491Z" fill="#093F68"/>
<path d="M119.26 190.491C118.943 190.491 118.638 190.365 118.414 190.14C118.19 189.916 118.064 189.612 118.064 189.295V145.561C118.064 145.244 118.19 144.94 118.414 144.716C118.638 144.492 118.943 144.366 119.26 144.366C119.577 144.366 119.881 144.492 120.105 144.716C120.329 144.94 120.455 145.244 120.455 145.561V189.295C120.455 189.612 120.329 189.916 120.105 190.14C119.881 190.365 119.577 190.491 119.26 190.491Z" fill="#093F68"/>
<path d="M143.076 92.4186C141.823 92.4096 140.572 92.3057 139.334 92.1077C139.017 92.0522 138.735 91.873 138.55 91.6096C138.365 91.3461 138.292 91.02 138.348 90.7029C138.403 90.3858 138.582 90.1038 138.846 89.9188C139.109 89.7338 139.435 89.6611 139.752 89.7166C141.634 90.0126 143.55 90.0126 145.431 89.7166C145.67 88.6167 144.236 84.5159 142.203 80.6542C142.133 80.5117 142.092 80.3566 142.082 80.198C142.073 80.0394 142.095 79.8805 142.147 79.7305C142.2 79.5806 142.282 79.4426 142.388 79.3247C142.495 79.2068 142.624 79.1112 142.768 79.0437C142.911 78.9761 143.067 78.938 143.226 78.9313C143.385 78.9247 143.543 78.9498 143.692 79.0051C143.841 79.0605 143.977 79.1449 144.093 79.2536C144.209 79.3623 144.302 79.4929 144.367 79.638C145.706 82.2084 148.707 88.4493 147.607 90.9002C147.484 91.1931 147.295 91.4534 147.054 91.6608C146.814 91.8683 146.528 92.0171 146.22 92.0957C145.19 92.3324 144.133 92.4409 143.076 92.4186Z" fill="#093F68"/>
<path d="M134.802 63.7729H116.534C115.9 63.7729 115.292 63.5209 114.843 63.0725C114.395 62.6241 114.143 62.0159 114.143 61.3817C114.143 60.7476 114.395 60.1394 114.843 59.6909C115.292 59.2425 115.9 58.9906 116.534 58.9906H134.814C135.448 58.9906 136.057 59.2425 136.505 59.6909C136.953 60.1394 137.205 60.7476 137.205 61.3817C137.205 62.0159 136.953 62.6241 136.505 63.0725C136.057 63.5209 135.448 63.7729 134.814 63.7729H134.802Z" fill="#093F68"/>
<path d="M168.577 63.7729H150.309C149.675 63.7729 149.067 63.5209 148.618 63.0725C148.17 62.6241 147.918 62.0159 147.918 61.3817C147.918 60.7476 148.17 60.1394 148.618 59.6909C149.067 59.2425 149.675 58.9906 150.309 58.9906H168.577C169.211 58.9906 169.82 59.2425 170.268 59.6909C170.716 60.1394 170.968 60.7476 170.968 61.3817C170.968 62.0159 170.716 62.6241 170.268 63.0725C169.82 63.5209 169.211 63.7729 168.577 63.7729Z" fill="#093F68"/>
<path d="M114.944 70.3245H136.464C137.276 70.3245 138.054 70.647 138.628 71.221C139.202 71.795 139.525 72.5735 139.525 73.3852V75.3818C139.525 78.1182 138.438 80.7425 136.503 82.6775C134.568 84.6124 131.943 85.6995 129.207 85.6995H122.189C119.453 85.6995 116.828 84.6124 114.893 82.6775C112.958 80.7425 111.871 78.1182 111.871 75.3818V73.3852C111.871 72.9822 111.951 72.5833 112.105 72.2112C112.26 71.8391 112.486 71.5011 112.772 71.2167C113.057 70.9324 113.396 70.7072 113.769 70.5541C114.142 70.401 114.541 70.323 114.944 70.3245Z" fill="white"/>
<path d="M129.219 86.907H122.213C119.16 86.9038 116.234 85.6898 114.075 83.5313C111.917 81.3729 110.703 78.4462 110.7 75.3937V73.3852C110.7 72.2584 111.146 71.1776 111.942 70.3798C112.738 69.5819 113.817 69.1321 114.944 69.129H136.464C137.592 69.1321 138.673 69.5816 139.47 70.3791C140.268 71.1766 140.717 72.2573 140.72 73.3852V75.3937C140.717 78.4442 139.505 81.369 137.349 83.5271C135.193 85.6852 132.269 86.9007 129.219 86.907ZM114.944 71.5201C114.699 71.5201 114.458 71.5684 114.232 71.6623C114.006 71.7562 113.801 71.8937 113.629 72.0671C113.457 72.2404 113.321 72.4461 113.228 72.6723C113.136 72.8985 113.089 73.1408 113.091 73.3852V75.3937C113.094 77.8121 114.056 80.1305 115.766 81.8405C117.476 83.5506 119.794 84.5127 122.213 84.5159H129.219C131.638 84.5127 133.958 83.551 135.67 81.8413C137.382 80.1316 138.347 77.8132 138.353 75.3937V73.3852C138.353 72.8905 138.156 72.4161 137.807 72.0664C137.457 71.7166 136.983 71.5201 136.488 71.5201H114.944Z" fill="#093F68"/>
<path d="M149.688 70.3245H171.208C172.019 70.3245 172.798 70.647 173.372 71.221C173.946 71.795 174.268 72.5735 174.268 73.3852V75.3818C174.268 78.1182 173.181 80.7425 171.246 82.6775C169.311 84.6124 166.687 85.6995 163.951 85.6995H156.933C154.196 85.6995 151.572 84.6124 149.637 82.6775C147.702 80.7425 146.615 78.1182 146.615 75.3818V73.3852C146.615 72.9822 146.695 72.5833 146.849 72.2112C147.004 71.8391 147.23 71.5011 147.516 71.2167C147.801 70.9324 148.14 70.7072 148.513 70.5541C148.885 70.401 149.285 70.323 149.688 70.3245Z" fill="white"/>
<path d="M163.963 86.907H156.957C153.902 86.907 150.972 85.6944 148.811 83.5356C146.65 81.3767 145.435 78.4483 145.431 75.3937V73.3852C145.435 72.2573 145.884 71.1766 146.682 70.3791C147.479 69.5816 148.56 69.1321 149.688 69.129H171.208C172.335 69.1321 173.414 69.5819 174.21 70.3798C175.005 71.1776 175.452 72.2584 175.452 73.3852V75.3937C175.449 78.4421 174.238 81.3651 172.085 83.5229C169.932 85.6807 167.011 86.8975 163.963 86.907ZM149.688 71.5201C149.193 71.5201 148.719 71.7166 148.369 72.0664C148.019 72.4161 147.823 72.8905 147.823 73.3852V75.3937C147.829 77.8132 148.794 80.1316 150.506 81.8413C152.218 83.551 154.537 84.5127 156.957 84.5159H163.963C166.381 84.5127 168.699 83.5506 170.41 81.8405C172.12 80.1305 173.082 77.8121 173.085 75.3937V73.3852C173.086 73.1408 173.04 72.8985 172.947 72.6723C172.855 72.4461 172.719 72.2404 172.546 72.0671C172.374 71.8937 172.169 71.7562 171.944 71.6623C171.718 71.5684 171.476 71.5201 171.232 71.5201H149.688Z" fill="#093F68"/>
<path d="M111.896 76.5892H104.914C104.597 76.5892 104.293 76.4633 104.068 76.2391C103.844 76.0149 103.718 75.7108 103.718 75.3937C103.718 75.0766 103.844 74.7725 104.068 74.5483C104.293 74.3241 104.597 74.1981 104.914 74.1981H111.86C112.177 74.1981 112.481 74.3241 112.705 74.5483C112.93 74.7725 113.056 75.0766 113.056 75.3937C113.056 75.7108 112.93 76.0149 112.705 76.2391C112.481 76.4633 112.177 76.5892 111.86 76.5892H111.896Z" fill="#093F68"/>
<path d="M181.573 76.5892H174.639C174.322 76.5892 174.017 76.4633 173.793 76.2391C173.569 76.0149 173.443 75.7108 173.443 75.3937C173.443 75.0766 173.569 74.7725 173.793 74.5483C174.017 74.3241 174.322 74.1981 174.639 74.1981H181.573C181.89 74.1981 182.194 74.3241 182.418 74.5483C182.642 74.7725 182.768 75.0766 182.768 75.3937C182.768 75.7108 182.642 76.0149 182.418 76.2391C182.194 76.4633 181.89 76.5892 181.573 76.5892Z" fill="#093F68"/>
<path d="M146.627 76.5892H139.585C139.268 76.5892 138.964 76.4633 138.74 76.2391C138.515 76.0149 138.389 75.7108 138.389 75.3937C138.389 75.0766 138.515 74.7725 138.74 74.5483C138.964 74.3241 139.268 74.1981 139.585 74.1981H146.663C146.98 74.1981 147.284 74.3241 147.508 74.5483C147.732 74.7725 147.858 75.0766 147.858 75.3937C147.858 75.7108 147.732 76.0149 147.508 76.2391C147.284 76.4633 146.98 76.5892 146.663 76.5892H146.627Z" fill="#093F68"/>
<path d="M142.371 103.944C138.105 103.96 133.873 103.186 129.889 101.66C129.593 101.546 129.354 101.319 129.225 101.028C129.096 100.738 129.088 100.408 129.202 100.112C129.316 99.8155 129.543 99.5765 129.833 99.4476C130.124 99.3187 130.453 99.3104 130.75 99.4245C138.39 102.17 146.747 102.17 154.386 99.4245C154.531 99.3641 154.687 99.3329 154.844 99.3326C155.002 99.3323 155.158 99.363 155.303 99.423C155.448 99.4829 155.581 99.5709 155.692 99.682C155.803 99.793 155.892 99.9249 155.952 100.07C156.013 100.215 156.044 100.371 156.044 100.528C156.045 100.686 156.014 100.842 155.954 100.987C155.894 101.132 155.806 101.265 155.695 101.376C155.584 101.487 155.452 101.576 155.307 101.636C151.17 103.181 146.787 103.963 142.371 103.944Z" fill="#093F68"/>
<path d="M175.942 180.448C175.663 180.453 175.39 180.361 175.171 180.186C174.953 180.011 174.803 179.765 174.747 179.491C174.715 179.337 174.714 179.179 174.744 179.025C174.774 178.871 174.834 178.724 174.921 178.593C175.007 178.462 175.119 178.349 175.249 178.261C175.379 178.173 175.525 178.112 175.679 178.081L188.902 175.379C189.219 175.315 189.548 175.38 189.818 175.56C190.087 175.739 190.273 176.018 190.337 176.335C190.4 176.652 190.335 176.981 190.156 177.25C189.976 177.52 189.697 177.706 189.38 177.77L176.157 180.46C176.085 180.466 176.013 180.462 175.942 180.448Z" fill="#093F68"/>
<path d="M110.377 180.448C110.298 180.46 110.218 180.46 110.138 180.448L96.9154 177.674C96.7584 177.643 96.6091 177.581 96.4761 177.492C96.3431 177.402 96.2289 177.288 96.1401 177.155C96.0512 177.022 95.9895 176.872 95.9585 176.715C95.9274 176.558 95.9276 176.396 95.959 176.239C95.9904 176.082 96.0524 175.933 96.1415 175.8C96.2306 175.667 96.345 175.553 96.4782 175.464C96.6114 175.375 96.7608 175.314 96.9179 175.282C97.075 175.251 97.2366 175.252 97.3937 175.283L110.617 177.985C110.77 178.016 110.917 178.078 111.047 178.166C111.177 178.253 111.288 178.366 111.375 178.497C111.462 178.628 111.522 178.775 111.551 178.929C111.581 179.083 111.581 179.242 111.549 179.396C111.514 179.683 111.376 179.948 111.161 180.142C110.945 180.335 110.667 180.444 110.377 180.448Z" fill="#093F68"/>
<path d="M109.408 155.389H176.766C178.282 155.389 179.736 155.991 180.807 157.063C181.879 158.134 182.481 159.588 182.481 161.104V200.39H103.718V161.104C103.718 159.592 104.316 158.142 105.383 157.071C106.449 156 107.897 155.395 109.408 155.389Z" fill="#F56132"/>
<path d="M182.482 201.585H103.718C103.401 201.585 103.097 201.459 102.873 201.235C102.648 201.011 102.522 200.707 102.522 200.39V161.104C102.522 159.271 103.25 157.513 104.546 156.217C105.842 154.921 107.6 154.193 109.433 154.193H176.767C178.6 154.193 180.357 154.921 181.653 156.217C182.949 157.513 183.677 159.271 183.677 161.104V200.39C183.677 200.707 183.551 201.011 183.327 201.235C183.103 201.459 182.799 201.585 182.482 201.585ZM104.914 199.194H181.31V161.104C181.307 159.906 180.83 158.758 179.983 157.911C179.136 157.065 177.988 156.588 176.791 156.584H109.409C108.211 156.588 107.064 157.065 106.217 157.911C105.37 158.758 104.893 159.906 104.89 161.104L104.914 199.194Z" fill="#093F68"/>
<path d="M99.8675 200.39H186.319C186.319 201.918 185.711 203.384 184.631 204.465C183.55 205.545 182.084 206.152 180.556 206.152H105.63C104.102 206.152 102.636 205.545 101.555 204.465C100.475 203.384 99.8675 201.918 99.8675 200.39Z" fill="#F56132"/>
<path d="M180.544 207.372H105.631C103.786 207.369 102.018 206.635 100.714 205.33C99.4096 204.026 98.6755 202.258 98.6723 200.414C98.6723 200.097 98.7983 199.793 99.0225 199.568C99.2467 199.344 99.5508 199.218 99.8679 199.218H186.307C186.624 199.218 186.928 199.344 187.152 199.568C187.377 199.793 187.503 200.097 187.503 200.414C187.499 202.258 186.765 204.026 185.461 205.33C184.157 206.635 182.389 207.369 180.544 207.372ZM101.219 201.585C101.483 202.553 102.058 203.407 102.855 204.016C103.652 204.625 104.627 204.956 105.631 204.957H180.544C181.558 204.969 182.546 204.644 183.356 204.034C184.165 203.424 184.749 202.563 185.016 201.585H101.219Z" fill="#093F68"/>
<path d="M142.203 156.584C141.885 156.584 141.581 156.458 141.357 156.234C141.133 156.01 141.007 155.706 141.007 155.389V133.869C141.007 133.552 141.133 133.247 141.357 133.023C141.581 132.799 141.885 132.673 142.203 132.673C142.52 132.673 142.824 132.799 143.048 133.023C143.272 133.247 143.398 133.552 143.398 133.869V155.389C143.398 155.706 143.272 156.01 143.048 156.234C142.824 156.458 142.52 156.584 142.203 156.584Z" fill="#093F68"/>
<path d="M28.8281 171.589H62.3038V195.189C62.3038 198.103 61.1463 200.898 59.0858 202.958C57.0252 205.019 54.2306 206.176 51.3166 206.176H39.8153C36.9013 206.176 34.1067 205.019 32.0462 202.958C29.9857 200.898 28.8281 198.103 28.8281 195.189V171.589Z" fill="#FFBC0E"/>
<path d="M51.3162 207.372H39.8149C36.5848 207.369 33.4879 206.084 31.2039 203.8C28.9199 201.516 27.6353 198.419 27.6322 195.189V171.589C27.6322 171.272 27.7581 170.968 27.9823 170.743C28.2065 170.519 28.5106 170.393 28.8277 170.393H62.3035C62.6206 170.393 62.9246 170.519 63.1489 170.743C63.3731 170.968 63.499 171.272 63.499 171.589V195.189C63.4959 198.419 62.2113 201.516 59.9273 203.8C57.6433 206.084 54.5463 207.369 51.3162 207.372ZM30.0233 172.784V195.189C30.0233 197.786 31.0549 200.277 32.8912 202.113C34.7275 203.949 37.218 204.981 39.8149 204.981H51.3162C53.9122 204.978 56.4009 203.945 58.2365 202.109C60.0721 200.274 61.1047 197.785 61.1079 195.189V172.784H30.0233Z" fill="#093F68"/>
<path d="M208.461 206.176H8.53888C4.65637 206.176 1.50897 209.321 1.50897 213.2C1.50897 217.079 4.65637 220.224 8.53888 220.224H208.461C212.343 220.224 215.491 217.079 215.491 213.2C215.491 209.321 212.343 206.176 208.461 206.176Z" fill="#725858"/>
<path d="M208.461 221.42H8.53901C7.43323 221.462 6.33031 221.281 5.29628 220.886C4.26224 220.492 3.31836 219.894 2.52111 219.126C1.72387 218.359 1.08967 217.439 0.656478 216.42C0.223283 215.402 0 214.307 0 213.2C0 212.094 0.223283 210.998 0.656478 209.98C1.08967 208.962 1.72387 208.042 2.52111 207.274C3.31836 206.507 4.26224 205.908 5.29628 205.514C6.33031 205.12 7.43323 204.939 8.53901 204.981H208.461C209.567 204.939 210.67 205.12 211.704 205.514C212.738 205.908 213.682 206.507 214.479 207.274C215.276 208.042 215.91 208.962 216.344 209.98C216.777 210.998 217 212.094 217 213.2C217 214.307 216.777 215.402 216.344 216.42C215.91 217.439 215.276 218.359 214.479 219.126C213.682 219.894 212.738 220.492 211.704 220.886C210.67 221.281 209.567 221.462 208.461 221.42ZM8.53901 207.372C7.75141 207.336 6.96474 207.46 6.22653 207.737C5.48831 208.014 4.81386 208.438 4.24389 208.982C3.67393 209.527 3.22029 210.182 2.91035 210.907C2.60042 211.632 2.44062 212.412 2.44062 213.2C2.44062 213.989 2.60042 214.769 2.91035 215.494C3.22029 216.219 3.67393 216.873 4.24389 217.418C4.81386 217.963 5.48831 218.386 6.22653 218.663C6.96474 218.94 7.75141 219.064 8.53901 219.029H208.461C209.249 219.064 210.035 218.94 210.773 218.663C211.512 218.386 212.186 217.963 212.756 217.418C213.326 216.873 213.78 216.219 214.09 215.494C214.4 214.769 214.559 213.989 214.559 213.2C214.559 212.412 214.4 211.632 214.09 210.907C213.78 210.182 213.326 209.527 212.756 208.982C212.186 208.438 211.512 208.014 210.773 207.737C210.035 207.46 209.249 207.336 208.461 207.372H8.53901Z" fill="#093F68"/>
<path d="M64.2642 195.607H62.3154C61.9983 195.607 61.6942 195.481 61.47 195.257C61.2458 195.033 61.1199 194.729 61.1199 194.412V175.438C61.1199 175.121 61.2458 174.817 61.47 174.593C61.6942 174.369 61.9983 174.243 62.3154 174.243H64.2642C65.7752 174.06 67.3077 174.2 68.7606 174.654C70.2135 175.107 71.5537 175.864 72.6926 176.873C73.8315 177.883 74.7433 179.122 75.3678 180.51C75.9922 181.898 76.3151 183.403 76.3151 184.925C76.3151 186.447 75.9922 187.952 75.3678 189.34C74.7433 190.728 73.8315 191.967 72.6926 192.977C71.5537 193.987 70.2135 194.743 68.7606 195.197C67.3077 195.65 65.7752 195.79 64.2642 195.607ZM63.511 193.216H64.2642C65.4356 193.35 66.622 193.234 67.7456 192.877C68.8692 192.52 69.9047 191.93 70.7843 191.145C71.6639 190.36 72.3677 189.398 72.8496 188.322C73.3314 187.246 73.5806 186.08 73.5806 184.901C73.5806 183.722 73.3314 182.557 72.8496 181.481C72.3677 180.405 71.6639 179.443 70.7843 178.657C69.9047 177.872 68.8692 177.282 67.7456 176.925C66.622 176.568 65.4356 176.453 64.2642 176.586H63.511V193.216Z" fill="#093F68"/>
<path d="M78.6112 66.4629H7.7383C6.08757 66.4629 4.74939 67.8011 4.74939 69.4518V128.118C4.74939 129.769 6.08757 131.107 7.7383 131.107H78.6112C80.262 131.107 81.6001 129.769 81.6001 128.118V69.4518C81.6001 67.8011 80.262 66.4629 78.6112 66.4629Z" fill="white"/>
<path d="M78.6109 132.303H7.72596C6.61824 132.299 5.55697 131.857 4.77482 131.073C3.99266 130.288 3.55345 129.226 3.55345 128.118V69.4398C3.55345 68.3332 3.99305 67.2719 4.77555 66.4894C5.55805 65.7069 6.61934 65.2673 7.72596 65.2673H78.6109C79.7186 65.2673 80.7811 65.7065 81.5655 66.4887C82.3499 67.2709 82.7922 68.3321 82.7953 69.4398V128.118C82.7953 129.228 82.3545 130.292 81.5697 131.077C80.785 131.862 79.7206 132.303 78.6109 132.303ZM7.72596 67.6824C7.25351 67.6824 6.80041 67.87 6.46633 68.2041C6.13226 68.5382 5.94458 68.9913 5.94458 69.4638V128.142C5.94457 128.616 6.13187 129.07 6.4656 129.406C6.79934 129.742 7.25241 129.932 7.72596 129.935H78.6109C79.0865 129.935 79.5426 129.746 79.8789 129.41C80.2152 129.074 80.4042 128.618 80.4042 128.142V69.4398C80.3948 68.9705 80.2017 68.5235 79.8664 68.1949C79.5311 67.8663 79.0803 67.6823 78.6109 67.6824H7.72596Z" fill="#093F68"/>
<path d="M7.72634 66.4868H78.6112C79.4039 66.4868 80.1642 66.8017 80.7247 67.3622C81.2852 67.9228 81.6001 68.683 81.6001 69.4757V74.6525H4.74939V69.4757C4.74938 68.6851 5.06264 67.9266 5.62059 67.3665C6.17853 66.8063 6.9357 66.49 7.72634 66.4868Z" fill="#68E1FD"/>
<path d="M81.5998 75.8241H4.74901C4.43193 75.8241 4.12783 75.6982 3.90362 75.474C3.67941 75.2498 3.55345 74.9457 3.55345 74.6286V69.4398C3.55345 68.3332 3.99305 67.2719 4.77555 66.4894C5.55805 65.7069 6.61934 65.2673 7.72596 65.2673H78.6109C79.7186 65.2673 80.7811 65.7065 81.5655 66.4887C82.3499 67.2709 82.7922 68.3321 82.7953 69.4398V74.6286C82.7953 74.9457 82.6694 75.2498 82.4452 75.474C82.2209 75.6982 81.9168 75.8241 81.5998 75.8241ZM5.94458 73.433H80.4042V69.4398C80.3948 68.9705 80.2017 68.5235 79.8664 68.1949C79.5311 67.8663 79.0803 67.6823 78.6109 67.6824H7.72596C7.25351 67.6824 6.80041 67.87 6.46633 68.2041C6.13226 68.5382 5.94458 68.9913 5.94458 69.4638V73.433Z" fill="#093F68"/>
<path d="M10.7152 72.1419C11.6 72.1419 12.3173 71.4246 12.3173 70.5398C12.3173 69.655 11.6 68.9377 10.7152 68.9377C9.8304 68.9377 9.11314 69.655 9.11314 70.5398C9.11314 71.4246 9.8304 72.1419 10.7152 72.1419Z" fill="#093F68"/>
<path d="M15.1984 72.1419C16.0832 72.1419 16.8004 71.4246 16.8004 70.5398C16.8004 69.655 16.0832 68.9377 15.1984 68.9377C14.3136 68.9377 13.5963 69.655 13.5963 70.5398C13.5963 71.4246 14.3136 72.1419 15.1984 72.1419Z" fill="#093F68"/>
<path d="M19.6933 72.1419C20.5781 72.1419 21.2953 71.4246 21.2953 70.5398C21.2953 69.655 20.5781 68.9377 19.6933 68.9377C18.8085 68.9377 18.0912 69.655 18.0912 70.5398C18.0912 71.4246 18.8085 72.1419 19.6933 72.1419Z" fill="#093F68"/>
<path d="M33.2868 97.1529L22.2278 102.198V102.282L33.2868 107.327V112.851L15.6283 104.805V99.6756L33.2868 91.5936V97.1529Z" fill="#093F68"/>
<path d="M46.4027 83.6192L50.372 85.0419L39.9108 116.7L35.9654 115.278L46.4027 83.6192Z" fill="#093F68"/>
<path d="M53.0621 107.327L64.1211 102.282V102.198L53.0621 97.1529V91.5936L70.7086 99.6397V104.769L53.0621 112.815V107.327Z" fill="#093F68"/>
</svg>
